<svg xmlns="http://www.w3.org/2000/svg" xmlns:xlink="http://www.w3.org/1999/xlink" width="500" zoomAndPan="magnify" viewBox="0 0 375 374.999991" height="500" preserveAspectRatio="xMidYMid meet" version="1.0"><defs><clipPath id="43fd2fede0"><path d="M 187.5 0 C 83.945312 0 0 83.945312 0 187.5 C 0 291.054688 83.945312 375 187.5 375 C 291.054688 375 375 291.054688 375 187.5 C 375 83.945312 291.054688 0 187.5 0 Z M 187.5 0 " clip-rule="nonzero"/></clipPath><clipPath id="f5a269ffd1"><path d="M 62 66.105469 L 337.1875 66.105469 L 337.1875 309.105469 L 62 309.105469 Z M 62 66.105469 " clip-rule="nonzero"/></clipPath><clipPath id="02b71833cc"><path d="M 22.1875 170 L 72 170 L 72 214 L 22.1875 214 Z M 22.1875 170 " clip-rule="nonzero"/></clipPath></defs><g clip-path="url(#43fd2fede0)"><rect x="-37.5" width="450" fill="#ffffff" y="-37.499999" height="449.999989" fill-opacity="1"/></g><path fill="#000000" d="M 194.308594 226.605469 L 166.167969 226.605469 L 166.167969 218.0625 L 194.308594 218.0625 C 200.753906 218.0625 206 212.808594 206 206.335938 L 206 201.28125 C 206 194.824219 200.753906 189.554688 194.308594 189.554688 L 182.121094 189.554688 C 170.980469 189.554688 161.90625 180.480469 161.90625 169.300781 C 161.90625 158.125 170.980469 149.03125 182.121094 149.03125 L 210.261719 149.03125 L 210.261719 157.574219 L 182.121094 157.574219 C 175.675781 157.574219 170.429688 162.828125 170.429688 169.300781 C 170.429688 175.757812 175.675781 181.011719 182.121094 181.011719 L 194.308594 181.011719 C 205.449219 181.011719 214.523438 190.105469 214.523438 201.28125 L 214.523438 206.335938 C 214.523438 217.511719 205.449219 226.605469 194.308594 226.605469 " fill-opacity="1" fill-rule="nonzero"/><path fill="#000000" d="M 192.476562 237.648438 L 183.953125 237.648438 L 183.953125 137.988281 L 192.476562 137.988281 L 192.476562 237.648438 " fill-opacity="1" fill-rule="nonzero"/><g clip-path="url(#f5a269ffd1)"><path fill="#000000" d="M 219.785156 300.707031 L 256.46875 300.707031 L 256.46875 268.445312 L 258.71875 267.226562 C 279.683594 256.066406 295.769531 239.734375 304.011719 221.25 L 305.125 218.730469 L 328.554688 218.730469 L 328.554688 176.992188 L 309.121094 176.992188 L 308.324219 173.773438 C 303.226562 153.402344 289.074219 134.71875 268.476562 121.171875 L 266.277344 119.722656 L 271.140625 78.785156 L 234.988281 105.558594 L 232.957031 104.976562 C 219.535156 101.070312 205.417969 99.101562 190.996094 99.101562 C 125.105469 99.101562 71.503906 140.457031 71.503906 191.304688 C 71.503906 219.964844 88.386719 246.507812 117.796875 264.125 L 119.875 265.375 L 119.875 300.707031 L 156.558594 300.707031 L 156.558594 279.6875 L 161.640625 280.6875 C 178.875 284.058594 197.324219 284.390625 214.859375 281.65625 L 219.785156 280.890625 Z M 259.066406 309.25 L 217.171875 309.25 C 213.910156 309.25 211.261719 306.597656 211.261719 303.328125 L 211.261719 290.78125 C 195.941406 292.683594 180.15625 292.417969 165.085938 289.980469 L 165.085938 303.328125 C 165.085938 306.597656 162.4375 309.25 159.15625 309.25 L 117.261719 309.25 C 114 309.25 111.351562 306.597656 111.351562 303.328125 L 111.351562 270.195312 C 80.578125 250.976562 62.976562 222.351562 62.976562 191.304688 C 62.976562 135.753906 120.410156 90.5625 190.996094 90.5625 C 205.5 90.5625 219.71875 92.445312 233.292969 96.183594 L 272.140625 67.421875 C 273.820312 66.171875 276.085938 66.039062 277.917969 67.089844 C 279.734375 68.15625 280.75 70.191406 280.5 72.292969 L 275.371094 115.519531 C 295.5 129.398438 309.6875 148.015625 315.714844 168.449219 L 331.167969 168.449219 C 334.433594 168.449219 337.082031 171.121094 337.082031 174.375 L 337.082031 221.332031 C 337.082031 224.601562 334.433594 227.273438 331.167969 227.273438 L 310.621094 227.273438 C 301.628906 245.757812 285.578125 262.039062 264.996094 273.53125 L 264.996094 303.328125 C 264.996094 306.597656 262.347656 309.25 259.066406 309.25 " fill-opacity="1" fill-rule="nonzero"/></g><g clip-path="url(#02b71833cc)"><path fill="#000000" d="M 46.894531 213.460938 C 33.320312 213.460938 22.296875 202.398438 22.296875 188.804688 C 22.296875 182.03125 25.113281 175.472656 30.058594 170.835938 L 35.902344 177.058594 C 32.621094 180.144531 30.824219 184.316406 30.824219 188.804688 C 30.824219 197.695312 38.035156 204.917969 46.894531 204.917969 C 55.769531 204.917969 62.976562 197.695312 62.976562 188.804688 L 71.503906 188.804688 C 71.503906 202.398438 60.464844 213.460938 46.894531 213.460938 " fill-opacity="1" fill-rule="nonzero"/></g></svg>