<svg xmlns="http://www.w3.org/2000/svg" xmlns:xlink="http://www.w3.org/1999/xlink" width="500" zoomAndPan="magnify" viewBox="0 0 375 374.999991" height="500" preserveAspectRatio="xMidYMid meet" version="1.0"><path fill="#1b2846" d="M 66.929688 48.703125 C 66.929688 48.703125 66.550781 40.742188 70.261719 40.515625 C 73.96875 40.210938 72.230469 46.503906 72.230469 46.503906 C 72.230469 46.503906 77.074219 36.574219 88.960938 38.847656 C 100.847656 41.121094 98.878906 46.199219 98.878906 46.199219 C 98.878906 46.199219 109.101562 41.957031 113.039062 51.050781 C 120.15625 67.347656 108.496094 77.808594 108.496094 77.808594 L 67.003906 86.148438 C 67.003906 86.148438 63.597656 69.015625 57.164062 60.300781 C 50.726562 51.582031 59.660156 44.988281 66.929688 48.703125 Z M 66.929688 48.703125 " fill-opacity="1" fill-rule="nonzero"/><path fill="#b9d3ea" d="M 275.363281 120.335938 L 275.363281 250.566406 C 275.363281 293.394531 240.6875 328.1875 197.835938 328.1875 L 46.488281 328.1875 C 44.667969 328.1875 42.851562 328.113281 41.113281 327.886719 C 18.550781 325.234375 1.058594 305.980469 1.058594 282.707031 L 1.058594 200.613281 C 1.058594 131.175781 57.3125 74.855469 126.664062 74.855469 L 229.9375 74.855469 C 254.996094 74.855469 275.363281 95.246094 275.363281 120.335938 Z M 275.363281 120.335938 " fill-opacity="1" fill-rule="nonzero"/><path fill="#ffffff" d="M 216.914062 197.503906 C 180.195312 211.832031 156.042969 210.84375 140.140625 203.417969 C 115.761719 191.96875 110.917969 165.289062 109.859375 155.355469 C 108.117188 138.90625 114.855469 121.851562 123.941406 124.582031 C 132.191406 127.082031 127.269531 164.074219 151.953125 173.625 C 154.226562 174.460938 156.648438 175.140625 159.449219 175.519531 C 192.535156 179.917969 204.347656 171.277344 204.347656 171.277344 C 216.6875 175.066406 216.914062 197.503906 216.914062 197.503906 Z M 216.914062 197.503906 " fill-opacity="1" fill-rule="nonzero"/><path fill="#1b2846" d="M 288.460938 341.757812 L 157.40625 334.707031 C 143.851562 333.949219 133.480469 322.429688 134.238281 308.859375 L 147.789062 56.8125 C 148.546875 43.242188 160.054688 32.859375 173.605469 33.617188 L 304.664062 40.589844 C 318.214844 41.347656 328.589844 52.871094 327.832031 66.441406 L 314.277344 318.488281 C 313.597656 332.054688 302.015625 342.515625 288.460938 341.757812 Z M 288.460938 341.757812 " fill-opacity="1" fill-rule="nonzero"/><path fill="#ffffff" d="M 277.179688 332.054688 L 163.6875 325.914062 C 150.136719 325.15625 139.765625 313.636719 140.519531 300.066406 L 153.316406 61.058594 C 154.074219 47.488281 165.582031 37.105469 179.132812 37.863281 L 292.625 44.003906 C 306.179688 44.761719 316.550781 56.28125 315.792969 69.851562 L 303 308.859375 C 302.316406 322.351562 290.734375 332.8125 277.179688 332.054688 Z M 277.179688 332.054688 " fill-opacity="1" fill-rule="nonzero"/><path fill="#b9d3ea" d="M 190.492188 63.9375 C 190.492188 64.75 190.410156 65.554688 190.253906 66.347656 C 190.09375 67.144531 189.859375 67.917969 189.550781 68.667969 C 189.242188 69.417969 188.859375 70.128906 188.410156 70.804688 C 187.960938 71.476562 187.449219 72.101562 186.875 72.675781 C 186.304688 73.25 185.679688 73.761719 185.007812 74.210938 C 184.332031 74.664062 183.621094 75.042969 182.871094 75.355469 C 182.125 75.664062 181.351562 75.898438 180.558594 76.058594 C 179.761719 76.214844 178.960938 76.292969 178.148438 76.292969 C 177.339844 76.292969 176.535156 76.214844 175.742188 76.058594 C 174.945312 75.898438 174.175781 75.664062 173.425781 75.355469 C 172.679688 75.042969 171.96875 74.664062 171.292969 74.210938 C 170.621094 73.761719 169.996094 73.25 169.421875 72.675781 C 168.851562 72.101562 168.339844 71.476562 167.886719 70.804688 C 167.4375 70.128906 167.058594 69.417969 166.746094 68.667969 C 166.4375 67.917969 166.203125 67.144531 166.046875 66.347656 C 165.886719 65.554688 165.808594 64.75 165.808594 63.9375 C 165.808594 63.128906 165.886719 62.324219 166.046875 61.527344 C 166.203125 60.730469 166.4375 59.960938 166.746094 59.210938 C 167.058594 58.460938 167.4375 57.75 167.886719 57.074219 C 168.339844 56.398438 168.851562 55.773438 169.421875 55.203125 C 169.996094 54.628906 170.621094 54.117188 171.292969 53.664062 C 171.96875 53.214844 172.679688 52.832031 173.425781 52.523438 C 174.175781 52.210938 174.945312 51.976562 175.742188 51.820312 C 176.535156 51.660156 177.339844 51.582031 178.148438 51.582031 C 178.960938 51.582031 179.761719 51.660156 180.558594 51.820312 C 181.351562 51.976562 182.125 52.210938 182.871094 52.523438 C 183.621094 52.832031 184.332031 53.214844 185.007812 53.664062 C 185.679688 54.117188 186.304688 54.628906 186.875 55.203125 C 187.449219 55.773438 187.960938 56.398438 188.410156 57.074219 C 188.859375 57.75 189.242188 58.460938 189.550781 59.210938 C 189.859375 59.960938 190.09375 60.730469 190.253906 61.527344 C 190.410156 62.324219 190.492188 63.128906 190.492188 63.9375 Z M 190.492188 63.9375 " fill-opacity="1" fill-rule="nonzero"/><path fill="#b9d3ea" d="M 227.210938 65.074219 L 200.183594 63.636719 C 198.289062 63.558594 196.773438 61.890625 196.925781 59.996094 C 197 58.101562 198.667969 56.585938 200.558594 56.738281 L 227.589844 58.175781 C 229.480469 58.253906 230.996094 59.921875 230.84375 61.816406 C 230.769531 63.710938 229.179688 65.226562 227.210938 65.074219 Z M 227.210938 65.074219 " fill-opacity="1" fill-rule="nonzero"/><path fill="#b9d3ea" d="M 213.429688 74.476562 L 199.726562 73.71875 C 197.835938 73.640625 196.320312 71.972656 196.472656 70.078125 C 196.546875 68.183594 198.214844 66.667969 200.105469 66.820312 L 213.808594 67.578125 C 215.703125 67.652344 217.21875 69.320312 217.066406 71.214844 C 216.988281 73.109375 215.324219 74.550781 213.429688 74.476562 Z M 213.429688 74.476562 " fill-opacity="1" fill-rule="nonzero"/><path fill="#2e93ff" d="M 288.082031 183.253906 L 168.6875 176.808594 C 163.765625 176.582031 160.054688 172.335938 160.28125 167.410156 L 164.144531 96.003906 C 164.371094 91.074219 168.609375 87.363281 173.53125 87.589844 L 292.929688 94.03125 C 297.851562 94.257812 301.558594 98.503906 301.332031 103.433594 L 297.472656 174.839844 C 297.242188 179.691406 293.003906 183.480469 288.082031 183.253906 Z M 288.082031 183.253906 " fill-opacity="1" fill-rule="nonzero"/><path fill="#ffffff" d="M 173.304688 142.699219 C 172.773438 142.699219 172.242188 142.472656 171.867188 142.167969 C 171.488281 141.789062 171.183594 141.332031 171.03125 140.726562 C 170.882812 140.121094 170.804688 139.363281 170.804688 138.453125 C 170.882812 137.542969 171.03125 136.859375 171.261719 136.179688 C 171.488281 135.574219 171.867188 135.117188 172.242188 134.816406 C 172.699219 134.511719 173.152344 134.359375 173.757812 134.359375 C 174.289062 134.359375 174.816406 134.585938 175.195312 134.964844 C 175.574219 135.34375 175.878906 135.800781 176.03125 136.480469 C 176.179688 137.089844 176.257812 137.847656 176.257812 138.757812 C 176.179688 139.664062 176.03125 140.425781 175.800781 141.03125 C 175.574219 141.636719 175.195312 142.089844 174.816406 142.394531 C 174.363281 142.546875 173.910156 142.699219 173.304688 142.699219 Z M 171.5625 140.121094 L 175.273438 136.101562 L 175.5 136.9375 L 171.789062 140.953125 Z M 173.378906 141.636719 C 173.683594 141.636719 173.984375 141.5625 174.210938 141.332031 C 174.441406 141.105469 174.589844 140.726562 174.742188 140.273438 C 174.894531 139.816406 174.96875 139.210938 174.96875 138.605469 C 174.96875 137.921875 174.96875 137.390625 174.894531 136.9375 C 174.816406 136.480469 174.667969 136.101562 174.441406 135.800781 C 174.210938 135.496094 173.984375 135.421875 173.683594 135.34375 C 173.378906 135.34375 173.078125 135.421875 172.851562 135.722656 C 172.621094 135.953125 172.394531 136.332031 172.320312 136.785156 C 172.167969 137.242188 172.09375 137.769531 172.09375 138.453125 C 172.09375 139.136719 172.09375 139.664062 172.167969 140.195312 C 172.242188 140.652344 172.394531 141.03125 172.621094 141.332031 C 172.851562 141.636719 173.078125 141.636719 173.378906 141.636719 Z M 173.378906 141.636719 " fill-opacity="1" fill-rule="nonzero"/><path fill="#ffffff" d="M 179.890625 143 C 179.359375 143 178.832031 142.773438 178.453125 142.472656 C 178.074219 142.167969 177.769531 141.636719 177.621094 141.03125 C 177.46875 140.425781 177.390625 139.664062 177.390625 138.757812 C 177.46875 137.847656 177.621094 137.164062 177.847656 136.480469 C 178.074219 135.875 178.453125 135.421875 178.832031 135.117188 C 179.285156 134.816406 179.738281 134.664062 180.34375 134.664062 C 180.875 134.664062 181.40625 134.890625 181.785156 135.269531 C 182.164062 135.648438 182.464844 136.101562 182.617188 136.785156 C 182.769531 137.390625 182.84375 138.148438 182.84375 139.058594 C 182.769531 139.96875 182.617188 140.726562 182.390625 141.332031 C 182.164062 141.941406 181.785156 142.394531 181.40625 142.699219 C 180.949219 142.925781 180.421875 143.078125 179.890625 143 Z M 178.148438 140.5 L 181.859375 136.480469 L 182.085938 137.316406 L 178.375 141.332031 Z M 179.964844 142.015625 C 180.269531 142.015625 180.574219 141.941406 180.800781 141.710938 C 181.027344 141.484375 181.179688 141.105469 181.328125 140.652344 C 181.480469 140.195312 181.554688 139.589844 181.554688 138.984375 C 181.554688 138.300781 181.554688 137.769531 181.480469 137.316406 C 181.40625 136.859375 181.253906 136.480469 181.027344 136.179688 C 180.800781 135.875 180.574219 135.800781 180.269531 135.722656 C 179.964844 135.722656 179.664062 135.800781 179.4375 136.101562 C 179.210938 136.332031 178.980469 136.710938 178.90625 137.164062 C 178.753906 137.621094 178.679688 138.148438 178.679688 138.832031 C 178.679688 139.515625 178.679688 140.046875 178.753906 140.574219 C 178.832031 141.03125 178.984375 141.410156 179.210938 141.710938 C 179.4375 142.015625 179.664062 142.015625 179.964844 142.015625 Z M 179.964844 142.015625 " fill-opacity="1" fill-rule="nonzero"/><path fill="#ffffff" d="M 186.476562 143.378906 C 185.949219 143.378906 185.417969 143.152344 185.039062 142.851562 C 184.660156 142.546875 184.359375 142.015625 184.207031 141.410156 C 184.054688 140.804688 183.980469 140.046875 183.980469 139.136719 C 184.054688 138.226562 184.207031 137.542969 184.433594 136.859375 C 184.660156 136.253906 185.039062 135.800781 185.417969 135.496094 C 185.871094 135.195312 186.328125 135.042969 186.933594 135.042969 C 187.460938 135.042969 187.992188 135.269531 188.371094 135.648438 C 188.75 136.027344 189.050781 136.480469 189.203125 137.164062 C 189.355469 137.769531 189.429688 138.527344 189.429688 139.4375 C 189.355469 140.347656 189.203125 141.105469 188.976562 141.710938 C 188.75 142.320312 188.371094 142.773438 187.992188 143.078125 C 187.539062 143.304688 187.007812 143.378906 186.476562 143.378906 Z M 184.738281 140.878906 L 188.445312 136.859375 L 188.671875 137.695312 L 184.964844 141.710938 Z M 186.476562 142.394531 C 186.78125 142.394531 187.082031 142.320312 187.3125 142.089844 C 187.539062 141.863281 187.6875 141.484375 187.839844 141.03125 C 187.992188 140.574219 188.066406 139.96875 188.066406 139.363281 C 188.066406 138.679688 188.066406 138.148438 187.992188 137.695312 C 187.917969 137.242188 187.765625 136.859375 187.539062 136.558594 C 187.3125 136.253906 187.082031 136.179688 186.78125 136.101562 C 186.476562 136.101562 186.175781 136.179688 185.949219 136.480469 C 185.722656 136.710938 185.492188 137.089844 185.417969 137.542969 C 185.265625 138 185.191406 138.527344 185.191406 139.210938 C 185.191406 139.894531 185.191406 140.425781 185.265625 140.953125 C 185.34375 141.410156 185.492188 141.789062 185.722656 142.089844 C 185.949219 142.394531 186.175781 142.394531 186.476562 142.394531 Z M 186.476562 142.394531 " fill-opacity="1" fill-rule="nonzero"/><path fill="#ffffff" d="M 192.988281 143.757812 C 192.460938 143.757812 191.929688 143.53125 191.550781 143.230469 C 191.171875 142.851562 190.871094 142.394531 190.71875 141.789062 C 190.566406 141.183594 190.492188 140.425781 190.492188 139.515625 C 190.566406 138.605469 190.71875 137.921875 190.945312 137.242188 C 191.171875 136.632812 191.550781 136.179688 191.929688 135.875 C 192.308594 135.574219 192.835938 135.421875 193.445312 135.421875 C 193.972656 135.421875 194.503906 135.648438 194.882812 136.027344 C 195.261719 136.40625 195.5625 136.859375 195.714844 137.542969 C 195.867188 138.148438 195.941406 138.90625 195.941406 139.816406 C 195.867188 140.726562 195.714844 141.484375 195.488281 142.089844 C 195.261719 142.699219 194.882812 143.152344 194.503906 143.457031 C 194.125 143.757812 193.59375 143.757812 192.988281 143.757812 Z M 191.246094 141.183594 L 194.957031 137.164062 L 195.183594 138 L 191.476562 142.015625 Z M 193.066406 142.699219 C 193.367188 142.699219 193.671875 142.621094 193.898438 142.394531 C 194.125 142.167969 194.277344 141.789062 194.425781 141.332031 C 194.578125 140.878906 194.65625 140.273438 194.65625 139.664062 C 194.65625 138.984375 194.65625 138.453125 194.578125 138 C 194.503906 137.542969 194.351562 137.164062 194.125 136.859375 C 193.898438 136.558594 193.671875 136.480469 193.367188 136.40625 C 193.066406 136.40625 192.761719 136.480469 192.535156 136.785156 C 192.308594 137.011719 192.082031 137.390625 192.003906 137.847656 C 191.851562 138.300781 191.777344 138.832031 191.777344 139.515625 C 191.777344 140.195312 191.777344 140.726562 191.851562 141.257812 C 191.929688 141.710938 192.082031 142.089844 192.308594 142.394531 C 192.535156 142.699219 192.761719 142.699219 193.066406 142.699219 Z M 193.066406 142.699219 " fill-opacity="1" fill-rule="nonzero"/><path fill="#ffffff" d="M 206.164062 144.441406 C 205.632812 144.441406 205.101562 144.214844 204.722656 143.910156 C 204.347656 143.609375 204.042969 143.078125 203.890625 142.472656 C 203.738281 141.863281 203.664062 141.105469 203.664062 140.195312 C 203.738281 139.285156 203.890625 138.605469 204.117188 137.921875 C 204.347656 137.316406 204.722656 136.859375 205.101562 136.558594 C 205.558594 136.253906 206.011719 136.101562 206.617188 136.101562 C 207.148438 136.101562 207.675781 136.332031 208.054688 136.710938 C 208.433594 137.089844 208.738281 137.542969 208.886719 138.226562 C 209.039062 138.832031 209.117188 139.589844 209.117188 140.5 C 209.039062 141.410156 208.886719 142.167969 208.660156 142.773438 C 208.433594 143.378906 208.054688 143.835938 207.675781 144.136719 C 207.148438 144.367188 206.691406 144.441406 206.164062 144.441406 Z M 204.347656 141.863281 L 208.054688 137.847656 L 208.28125 138.679688 L 204.574219 142.699219 Z M 206.164062 143.457031 C 206.464844 143.457031 206.769531 143.378906 206.996094 143.152344 C 207.222656 142.925781 207.375 142.546875 207.527344 142.089844 C 207.675781 141.636719 207.753906 141.03125 207.753906 140.425781 C 207.753906 139.742188 207.753906 139.210938 207.675781 138.757812 C 207.601562 138.300781 207.449219 137.921875 207.222656 137.621094 C 206.996094 137.316406 206.769531 137.242188 206.464844 137.164062 C 206.164062 137.164062 205.859375 137.242188 205.632812 137.542969 C 205.40625 137.769531 205.179688 138.148438 205.101562 138.605469 C 204.953125 139.058594 204.875 139.589844 204.875 140.273438 C 204.875 140.953125 204.875 141.484375 204.953125 142.015625 C 205.027344 142.472656 205.179688 142.851562 205.40625 143.152344 C 205.632812 143.457031 205.859375 143.378906 206.164062 143.457031 Z M 206.164062 143.457031 " fill-opacity="1" fill-rule="nonzero"/><path fill="#ffffff" d="M 212.675781 144.820312 C 212.144531 144.820312 211.613281 144.59375 211.234375 144.289062 C 210.855469 143.988281 210.554688 143.457031 210.402344 142.851562 C 210.25 142.242188 210.175781 141.484375 210.175781 140.574219 C 210.25 139.664062 210.402344 138.984375 210.628906 138.300781 C 210.855469 137.695312 211.234375 137.242188 211.613281 136.9375 C 212.070312 136.632812 212.523438 136.480469 213.128906 136.480469 C 213.660156 136.480469 214.1875 136.710938 214.566406 137.089844 C 214.945312 137.46875 215.25 137.921875 215.398438 138.605469 C 215.550781 139.210938 215.625 139.96875 215.625 140.878906 C 215.550781 141.789062 215.398438 142.546875 215.171875 143.152344 C 214.945312 143.757812 214.566406 144.214844 214.1875 144.515625 C 213.734375 144.667969 213.28125 144.820312 212.675781 144.820312 Z M 210.933594 142.242188 L 214.644531 138.226562 L 214.871094 139.058594 L 211.160156 143.078125 Z M 212.75 143.757812 C 213.050781 143.757812 213.355469 143.683594 213.582031 143.457031 C 213.808594 143.230469 213.960938 142.851562 214.113281 142.394531 C 214.265625 141.941406 214.339844 141.332031 214.339844 140.726562 C 214.339844 140.046875 214.339844 139.515625 214.265625 139.058594 C 214.1875 138.605469 214.035156 138.226562 213.808594 137.921875 C 213.582031 137.621094 213.355469 137.542969 213.050781 137.46875 C 212.75 137.46875 212.445312 137.542969 212.21875 137.847656 C 211.992188 138.074219 211.765625 138.453125 211.691406 138.90625 C 211.539062 139.363281 211.460938 139.894531 211.460938 140.574219 C 211.460938 141.257812 211.460938 141.789062 211.539062 142.320312 C 211.613281 142.773438 211.765625 143.152344 211.992188 143.457031 C 212.144531 143.609375 212.445312 143.757812 212.75 143.757812 Z M 212.75 143.757812 " fill-opacity="1" fill-rule="nonzero"/><path fill="#ffffff" d="M 219.261719 145.125 C 218.730469 145.125 218.199219 144.894531 217.824219 144.59375 C 217.445312 144.214844 217.140625 143.757812 216.988281 143.152344 C 216.839844 142.546875 216.761719 141.789062 216.761719 140.878906 C 216.839844 139.96875 216.988281 139.285156 217.21875 138.605469 C 217.445312 138 217.824219 137.542969 218.199219 137.242188 C 218.578125 136.9375 219.109375 136.785156 219.714844 136.785156 C 220.246094 136.785156 220.773438 137.011719 221.152344 137.390625 C 221.53125 137.769531 221.835938 138.226562 221.988281 138.90625 C 222.136719 139.515625 222.214844 140.273438 222.214844 141.183594 C 222.136719 142.089844 221.988281 142.851562 221.757812 143.457031 C 221.53125 144.0625 221.152344 144.515625 220.773438 144.820312 C 220.398438 145.125 219.792969 145.199219 219.261719 145.125 Z M 217.519531 142.621094 L 221.230469 138.605469 L 221.457031 139.4375 L 217.746094 143.457031 Z M 219.335938 144.136719 C 219.640625 144.136719 219.941406 144.0625 220.167969 143.835938 C 220.398438 143.609375 220.546875 143.230469 220.699219 142.773438 C 220.851562 142.320312 220.925781 141.710938 220.925781 141.105469 C 220.925781 140.425781 220.925781 139.894531 220.851562 139.4375 C 220.773438 138.984375 220.625 138.605469 220.398438 138.300781 C 220.167969 138 219.941406 137.921875 219.640625 137.847656 C 219.335938 137.847656 219.035156 137.921875 218.808594 138.226562 C 218.578125 138.453125 218.351562 138.832031 218.277344 139.285156 C 218.125 139.742188 218.050781 140.273438 218.050781 140.953125 C 218.050781 141.636719 218.050781 142.167969 218.125 142.699219 C 218.199219 143.152344 218.351562 143.53125 218.578125 143.835938 C 218.808594 144.136719 218.957031 144.136719 219.335938 144.136719 Z M 219.335938 144.136719 " fill-opacity="1" fill-rule="nonzero"/><path fill="#ffffff" d="M 225.773438 145.503906 C 225.242188 145.503906 224.710938 145.277344 224.332031 144.972656 C 223.957031 144.59375 223.652344 144.136719 223.5 143.53125 C 223.347656 142.925781 223.273438 142.167969 223.273438 141.257812 C 223.347656 140.347656 223.5 139.664062 223.726562 138.984375 C 223.957031 138.378906 224.332031 137.921875 224.710938 137.621094 C 225.089844 137.316406 225.621094 137.164062 226.226562 137.164062 C 226.757812 137.164062 227.285156 137.390625 227.664062 137.769531 C 228.042969 138.148438 228.347656 138.605469 228.496094 139.285156 C 228.648438 139.894531 228.726562 140.652344 228.726562 141.5625 C 228.648438 142.472656 228.496094 143.230469 228.269531 143.835938 C 228.042969 144.441406 227.664062 144.894531 227.285156 145.199219 C 226.90625 145.503906 226.378906 145.503906 225.773438 145.503906 Z M 224.03125 142.925781 L 227.742188 138.90625 L 227.96875 139.742188 L 224.257812 143.757812 Z M 225.847656 144.515625 C 226.152344 144.515625 226.453125 144.441406 226.679688 144.214844 C 226.90625 143.988281 227.058594 143.609375 227.210938 143.152344 C 227.363281 142.699219 227.4375 142.089844 227.4375 141.484375 C 227.4375 140.804688 227.4375 140.273438 227.363281 139.816406 C 227.285156 139.363281 227.136719 138.984375 226.90625 138.679688 C 226.679688 138.378906 226.453125 138.300781 226.152344 138.226562 C 225.847656 138.226562 225.546875 138.300781 225.316406 138.605469 C 225.089844 138.832031 224.863281 139.210938 224.789062 139.664062 C 224.636719 140.121094 224.5625 140.652344 224.5625 141.332031 C 224.5625 142.015625 224.5625 142.546875 224.636719 143.078125 C 224.710938 143.53125 224.863281 143.910156 225.089844 144.214844 C 225.316406 144.367188 225.546875 144.441406 225.847656 144.515625 Z M 225.847656 144.515625 " fill-opacity="1" fill-rule="nonzero"/><path fill="#ffffff" d="M 238.945312 146.183594 C 238.417969 146.183594 237.886719 145.957031 237.507812 145.65625 C 237.128906 145.277344 236.824219 144.820312 236.675781 144.214844 C 236.523438 143.609375 236.449219 142.851562 236.449219 141.941406 C 236.523438 141.03125 236.675781 140.347656 236.902344 139.664062 C 237.128906 139.058594 237.507812 138.605469 237.886719 138.300781 C 238.265625 138 238.792969 137.847656 239.398438 137.847656 C 239.929688 137.847656 240.460938 138.074219 240.839844 138.453125 C 241.21875 138.832031 241.519531 139.285156 241.671875 139.96875 C 241.824219 140.574219 241.898438 141.332031 241.898438 142.242188 C 241.824219 143.152344 241.671875 143.910156 241.445312 144.515625 C 241.21875 145.125 240.839844 145.578125 240.460938 145.882812 C 240.082031 146.183594 239.476562 146.261719 238.945312 146.183594 Z M 237.203125 143.683594 L 240.914062 139.664062 L 241.140625 140.5 L 237.433594 144.515625 Z M 238.945312 145.199219 C 239.25 145.199219 239.550781 145.125 239.777344 144.894531 C 240.007812 144.667969 240.15625 144.289062 240.308594 143.835938 C 240.460938 143.378906 240.535156 142.773438 240.535156 142.167969 C 240.535156 141.484375 240.535156 140.953125 240.460938 140.5 C 240.382812 140.046875 240.234375 139.664062 240.007812 139.363281 C 239.777344 139.058594 239.550781 138.984375 239.25 138.90625 C 238.945312 138.90625 238.644531 138.984375 238.417969 139.285156 C 238.1875 139.515625 237.960938 139.894531 237.886719 140.347656 C 237.734375 140.804688 237.660156 141.332031 237.660156 142.015625 C 237.660156 142.699219 237.660156 143.230469 237.734375 143.757812 C 237.808594 144.214844 237.960938 144.59375 238.1875 144.894531 C 238.417969 145.046875 238.644531 145.199219 238.945312 145.199219 Z M 238.945312 145.199219 " fill-opacity="1" fill-rule="nonzero"/><path fill="#ffffff" d="M 245.457031 146.5625 C 244.925781 146.5625 244.398438 146.335938 244.019531 146.035156 C 243.640625 145.65625 243.335938 145.199219 243.1875 144.59375 C 243.035156 143.988281 242.957031 143.230469 242.957031 142.320312 C 243.035156 141.410156 243.1875 140.726562 243.414062 140.046875 C 243.640625 139.4375 244.019531 138.984375 244.398438 138.679688 C 244.851562 138.378906 245.304688 138.226562 245.910156 138.226562 C 246.441406 138.226562 246.972656 138.453125 247.351562 138.832031 C 247.730469 139.210938 248.03125 139.664062 248.183594 140.347656 C 248.335938 140.953125 248.410156 141.710938 248.410156 142.621094 C 248.335938 143.53125 248.183594 144.289062 247.957031 144.894531 C 247.730469 145.503906 247.351562 145.957031 246.972656 146.261719 C 246.59375 146.5625 246.0625 146.5625 245.457031 146.5625 Z M 243.714844 143.988281 L 247.425781 139.96875 L 247.652344 140.804688 L 243.941406 144.820312 Z M 245.53125 145.578125 C 245.835938 145.578125 246.140625 145.503906 246.367188 145.277344 C 246.59375 145.046875 246.746094 144.667969 246.894531 144.214844 C 247.046875 143.757812 247.121094 143.152344 247.121094 142.546875 C 247.121094 141.863281 247.121094 141.332031 247.046875 140.878906 C 246.972656 140.425781 246.820312 140.046875 246.59375 139.742188 C 246.367188 139.4375 246.140625 139.363281 245.835938 139.285156 C 245.53125 139.285156 245.230469 139.363281 245.003906 139.664062 C 244.777344 139.894531 244.546875 140.273438 244.472656 140.726562 C 244.320312 141.183594 244.246094 141.710938 244.246094 142.394531 C 244.246094 143.078125 244.246094 143.609375 244.320312 144.136719 C 244.398438 144.59375 244.546875 144.972656 244.777344 145.277344 C 244.925781 145.425781 245.230469 145.503906 245.53125 145.578125 Z M 245.53125 145.578125 " fill-opacity="1" fill-rule="nonzero"/><path fill="#ffffff" d="M 252.042969 146.941406 C 251.515625 146.941406 250.984375 146.714844 250.605469 146.414062 C 250.226562 146.035156 249.925781 145.578125 249.773438 144.972656 C 249.621094 144.367188 249.546875 143.609375 249.546875 142.699219 C 249.621094 141.789062 249.773438 141.105469 250 140.425781 C 250.226562 139.816406 250.605469 139.363281 250.984375 139.058594 C 251.363281 138.757812 251.894531 138.605469 252.5 138.605469 C 253.027344 138.605469 253.558594 138.832031 253.9375 139.210938 C 254.316406 139.589844 254.617188 140.046875 254.769531 140.726562 C 254.921875 141.332031 254.996094 142.089844 254.996094 143 C 254.921875 143.910156 254.769531 144.667969 254.542969 145.277344 C 254.316406 145.882812 253.9375 146.335938 253.558594 146.640625 C 253.105469 146.792969 252.574219 146.941406 252.042969 146.941406 Z M 250.304688 144.367188 L 254.011719 140.347656 L 254.238281 141.183594 L 250.53125 145.199219 Z M 252.121094 145.882812 C 252.421875 145.882812 252.726562 145.804688 252.953125 145.578125 C 253.179688 145.351562 253.332031 144.972656 253.484375 144.515625 C 253.632812 144.0625 253.710938 143.457031 253.710938 142.851562 C 253.710938 142.167969 253.710938 141.636719 253.632812 141.183594 C 253.558594 140.726562 253.40625 140.347656 253.179688 140.046875 C 252.953125 139.742188 252.726562 139.664062 252.421875 139.589844 C 252.121094 139.589844 251.816406 139.664062 251.589844 139.96875 C 251.363281 140.195312 251.136719 140.574219 251.058594 141.03125 C 250.910156 141.484375 250.832031 142.015625 250.832031 142.699219 C 250.832031 143.378906 250.832031 143.910156 250.910156 144.441406 C 250.984375 144.894531 251.136719 145.277344 251.363281 145.578125 C 251.515625 145.730469 251.816406 145.882812 252.121094 145.882812 Z M 252.121094 145.882812 " fill-opacity="1" fill-rule="nonzero"/><path fill="#ffffff" d="M 258.632812 147.246094 C 258.101562 147.246094 257.570312 147.019531 257.191406 146.714844 C 256.8125 146.414062 256.511719 145.882812 256.359375 145.277344 C 256.207031 144.667969 256.132812 143.910156 256.132812 143 C 256.207031 142.089844 256.359375 141.410156 256.585938 140.726562 C 256.8125 140.121094 257.191406 139.664062 257.570312 139.363281 C 258.027344 139.058594 258.480469 138.90625 259.085938 138.90625 C 259.617188 138.90625 260.144531 139.136719 260.523438 139.515625 C 260.902344 139.894531 261.207031 140.347656 261.355469 141.03125 C 261.507812 141.636719 261.582031 142.394531 261.582031 143.304688 C 261.507812 144.214844 261.355469 144.972656 261.128906 145.578125 C 260.902344 146.183594 260.523438 146.640625 260.144531 146.941406 C 259.691406 147.171875 259.160156 147.320312 258.632812 147.246094 Z M 256.890625 144.746094 L 260.601562 140.726562 L 260.828125 141.5625 L 257.117188 145.578125 Z M 258.632812 146.261719 C 258.933594 146.261719 259.238281 146.183594 259.464844 145.957031 C 259.691406 145.730469 259.84375 145.351562 259.992188 144.894531 C 260.144531 144.441406 260.222656 143.835938 260.222656 143.230469 C 260.222656 142.546875 260.222656 142.015625 260.144531 141.5625 C 260.070312 141.105469 259.917969 140.726562 259.691406 140.425781 C 259.464844 140.121094 259.238281 140.046875 258.933594 139.96875 C 258.632812 139.96875 258.328125 140.046875 258.101562 140.347656 C 257.875 140.574219 257.648438 140.953125 257.570312 141.410156 C 257.417969 141.863281 257.34375 142.394531 257.34375 143.078125 C 257.34375 143.757812 257.34375 144.289062 257.417969 144.820312 C 257.496094 145.277344 257.648438 145.65625 257.875 145.957031 C 258.101562 146.109375 258.328125 146.261719 258.632812 146.261719 Z M 258.632812 146.261719 " fill-opacity="1" fill-rule="nonzero"/><path fill="#ffffff" d="M 271.730469 148.003906 C 271.199219 148.003906 270.667969 147.777344 270.289062 147.472656 C 269.914062 147.09375 269.609375 146.640625 269.457031 146.035156 C 269.304688 145.425781 269.230469 144.667969 269.230469 143.757812 C 269.304688 142.851562 269.457031 142.167969 269.683594 141.484375 C 269.914062 140.878906 270.289062 140.425781 270.667969 140.121094 C 271.125 139.816406 271.578125 139.664062 272.183594 139.664062 C 272.714844 139.664062 273.242188 139.894531 273.621094 140.273438 C 274 140.652344 274.304688 141.105469 274.453125 141.789062 C 274.605469 142.394531 274.683594 143.152344 274.683594 144.0625 C 274.605469 144.972656 274.453125 145.730469 274.226562 146.335938 C 274 146.941406 273.621094 147.398438 273.242188 147.699219 C 272.863281 148.003906 272.257812 148.003906 271.730469 148.003906 Z M 269.988281 145.425781 L 273.699219 141.410156 L 273.925781 142.242188 L 270.214844 146.261719 Z M 271.804688 146.941406 C 272.109375 146.941406 272.410156 146.867188 272.636719 146.640625 C 272.863281 146.414062 273.015625 146.035156 273.167969 145.578125 C 273.320312 145.125 273.394531 144.515625 273.394531 143.910156 C 273.394531 143.230469 273.394531 142.699219 273.320312 142.242188 C 273.242188 141.789062 273.09375 141.410156 272.863281 141.105469 C 272.636719 140.804688 272.410156 140.726562 272.109375 140.652344 C 271.804688 140.652344 271.503906 140.726562 271.273438 141.03125 C 271.046875 141.257812 270.820312 141.636719 270.746094 142.089844 C 270.59375 142.546875 270.519531 143.078125 270.519531 143.757812 C 270.519531 144.441406 270.519531 144.972656 270.59375 145.503906 C 270.667969 145.957031 270.820312 146.335938 271.046875 146.640625 C 271.199219 146.792969 271.425781 146.941406 271.804688 146.941406 Z M 271.804688 146.941406 " fill-opacity="1" fill-rule="nonzero"/><path fill="#ffffff" d="M 278.316406 148.308594 C 277.785156 148.308594 277.257812 148.082031 276.878906 147.777344 C 276.5 147.398438 276.195312 146.941406 276.042969 146.335938 C 275.894531 145.730469 275.816406 144.972656 275.816406 144.0625 C 275.894531 143.152344 276.042969 142.472656 276.273438 141.789062 C 276.5 141.183594 276.878906 140.726562 277.257812 140.425781 C 277.632812 140.121094 278.164062 139.96875 278.769531 139.96875 C 279.300781 139.96875 279.832031 140.195312 280.207031 140.574219 C 280.585938 140.953125 280.890625 141.410156 281.042969 142.089844 C 281.191406 142.699219 281.269531 143.457031 281.269531 144.367188 C 281.191406 145.277344 281.042969 146.035156 280.816406 146.640625 C 280.585938 147.246094 280.207031 147.699219 279.832031 148.003906 C 279.300781 148.230469 278.847656 148.382812 278.316406 148.308594 Z M 276.574219 145.804688 L 280.285156 141.789062 L 280.511719 142.621094 L 276.800781 146.640625 Z M 278.316406 147.320312 C 278.617188 147.320312 278.921875 147.246094 279.148438 147.019531 C 279.375 146.792969 279.527344 146.414062 279.679688 145.957031 C 279.832031 145.503906 279.90625 144.894531 279.90625 144.289062 C 279.90625 143.609375 279.90625 143.078125 279.832031 142.621094 C 279.753906 142.167969 279.601562 141.789062 279.375 141.484375 C 279.148438 141.183594 278.921875 141.105469 278.617188 141.03125 C 278.316406 141.03125 278.011719 141.105469 277.785156 141.410156 C 277.558594 141.636719 277.332031 142.015625 277.257812 142.472656 C 277.105469 142.925781 277.027344 143.457031 277.027344 144.136719 C 277.027344 144.820312 277.027344 145.351562 277.105469 145.882812 C 277.179688 146.335938 277.332031 146.714844 277.558594 147.019531 C 277.785156 147.171875 278.011719 147.320312 278.316406 147.320312 Z M 278.316406 147.320312 " fill-opacity="1" fill-rule="nonzero"/><path fill="#ffffff" d="M 284.828125 148.6875 C 284.296875 148.6875 283.765625 148.460938 283.390625 148.15625 C 283.011719 147.851562 282.707031 147.320312 282.554688 146.714844 C 282.40625 146.109375 282.328125 145.351562 282.328125 144.441406 C 282.40625 143.53125 282.554688 142.851562 282.78125 142.167969 C 283.011719 141.5625 283.390625 141.105469 283.765625 140.804688 C 284.222656 140.5 284.675781 140.347656 285.28125 140.347656 C 285.8125 140.347656 286.339844 140.574219 286.71875 140.953125 C 287.097656 141.332031 287.402344 141.789062 287.554688 142.472656 C 287.703125 143.078125 287.78125 143.835938 287.78125 144.746094 C 287.703125 145.65625 287.554688 146.414062 287.324219 147.019531 C 287.097656 147.625 286.71875 148.082031 286.339844 148.382812 C 285.886719 148.609375 285.433594 148.6875 284.828125 148.6875 Z M 283.085938 146.109375 L 286.796875 142.089844 L 287.023438 142.925781 L 283.3125 146.941406 Z M 284.902344 147.699219 C 285.207031 147.699219 285.507812 147.625 285.734375 147.398438 C 285.964844 147.171875 286.113281 146.792969 286.265625 146.335938 C 286.417969 145.882812 286.492188 145.277344 286.492188 144.667969 C 286.492188 143.988281 286.492188 143.457031 286.417969 143 C 286.339844 142.546875 286.191406 142.167969 285.964844 141.863281 C 285.734375 141.5625 285.507812 141.484375 285.207031 141.410156 C 284.902344 141.410156 284.601562 141.484375 284.375 141.789062 C 284.144531 142.015625 283.917969 142.394531 283.84375 142.851562 C 283.691406 143.304688 283.617188 143.835938 283.617188 144.515625 C 283.617188 145.199219 283.617188 145.730469 283.691406 146.261719 C 283.765625 146.714844 283.917969 147.09375 284.144531 147.398438 C 284.296875 147.472656 284.601562 147.625 284.902344 147.699219 Z M 284.902344 147.699219 " fill-opacity="1" fill-rule="nonzero"/><path fill="#ffffff" d="M 182.3125 160.664062 L 171.789062 160.132812 C 170.652344 160.058594 169.746094 159.070312 169.820312 157.933594 C 169.898438 156.796875 170.882812 155.886719 172.015625 155.964844 L 182.539062 156.496094 C 183.675781 156.570312 184.585938 157.554688 184.507812 158.691406 C 184.433594 159.828125 183.449219 160.738281 182.3125 160.664062 Z M 182.3125 160.664062 " fill-opacity="1" fill-rule="nonzero"/><path fill="#ffffff" d="M 176.636719 166.425781 L 171.488281 166.121094 C 170.351562 166.046875 169.441406 165.058594 169.519531 163.921875 C 169.59375 162.785156 170.578125 161.875 171.714844 161.953125 L 176.863281 162.253906 C 178 162.332031 178.90625 163.316406 178.832031 164.453125 C 178.753906 165.589844 177.769531 166.5 176.636719 166.425781 Z M 176.636719 166.425781 " fill-opacity="1" fill-rule="nonzero"/><path fill="#ffffff" d="M 284.222656 172.1875 L 278.847656 171.882812 C 277.710938 171.808594 276.800781 170.820312 276.878906 169.683594 C 276.953125 168.546875 277.9375 167.636719 279.074219 167.714844 L 284.449219 168.015625 C 285.585938 168.09375 286.492188 169.078125 286.417969 170.214844 C 286.339844 171.425781 285.355469 172.261719 284.222656 172.1875 Z M 284.222656 172.1875 " fill-opacity="1" fill-rule="nonzero"/><path fill="#ffffff" d="M 187.234375 107.296875 C 187.234375 107.78125 187.1875 108.257812 187.09375 108.730469 C 187 109.207031 186.859375 109.664062 186.675781 110.113281 C 186.492188 110.558594 186.265625 110.980469 185.996094 111.382812 C 185.730469 111.785156 185.425781 112.15625 185.082031 112.496094 C 184.742188 112.839844 184.371094 113.144531 183.972656 113.410156 C 183.570312 113.679688 183.148438 113.90625 182.703125 114.089844 C 182.257812 114.277344 181.796875 114.414062 181.324219 114.507812 C 180.851562 114.605469 180.375 114.652344 179.890625 114.652344 C 179.410156 114.652344 178.929688 114.605469 178.457031 114.507812 C 177.984375 114.414062 177.527344 114.277344 177.082031 114.089844 C 176.636719 113.90625 176.210938 113.679688 175.8125 113.410156 C 175.410156 113.144531 175.039062 112.839844 174.699219 112.496094 C 174.355469 112.15625 174.050781 111.785156 173.785156 111.382812 C 173.515625 110.980469 173.289062 110.558594 173.105469 110.113281 C 172.921875 109.664062 172.78125 109.207031 172.6875 108.730469 C 172.59375 108.257812 172.546875 107.78125 172.546875 107.296875 C 172.546875 106.816406 172.59375 106.335938 172.6875 105.863281 C 172.78125 105.390625 172.921875 104.929688 173.105469 104.484375 C 173.289062 104.039062 173.515625 103.613281 173.785156 103.210938 C 174.050781 102.8125 174.355469 102.441406 174.699219 102.097656 C 175.039062 101.757812 175.410156 101.453125 175.8125 101.183594 C 176.210938 100.914062 176.636719 100.6875 177.082031 100.503906 C 177.527344 100.320312 177.984375 100.179688 178.457031 100.085938 C 178.929688 99.992188 179.410156 99.945312 179.890625 99.945312 C 180.375 99.945312 180.851562 99.992188 181.324219 100.085938 C 181.796875 100.179688 182.257812 100.320312 182.703125 100.503906 C 183.148438 100.6875 183.570312 100.914062 183.972656 101.183594 C 184.371094 101.453125 184.742188 101.757812 185.082031 102.097656 C 185.425781 102.441406 185.730469 102.8125 185.996094 103.210938 C 186.265625 103.613281 186.492188 104.039062 186.675781 104.484375 C 186.859375 104.929688 187 105.390625 187.09375 105.863281 C 187.1875 106.335938 187.234375 106.816406 187.234375 107.296875 Z M 187.234375 107.296875 " fill-opacity="1" fill-rule="nonzero"/><path fill="#1b2846" d="M 88.886719 223.351562 C 88.886719 223.351562 86.539062 295.214844 77.757812 328.265625 L 46.488281 328.265625 C 44.667969 328.265625 42.851562 328.1875 41.113281 327.960938 C 42.019531 322.808594 53.605469 255.796875 46.789062 225.398438 C 39.671875 193.714844 96.382812 192.878906 88.886719 223.351562 Z M 88.886719 223.351562 " fill-opacity="1" fill-rule="nonzero"/><path fill="#1b2846" d="M 127.421875 328.265625 L 92.140625 328.265625 C 97.515625 255.722656 78.4375 231.691406 71.546875 218.652344 C 67.460938 210.921875 68.519531 203.71875 72.53125 198.109375 C 84.34375 181.507812 121.367188 177.945312 124.320312 210.085938 C 124.320312 210.011719 131.585938 289.679688 127.421875 328.265625 Z M 127.421875 328.265625 " fill-opacity="1" fill-rule="nonzero"/><path fill="#2e93ff" d="M 84.644531 113.363281 L 93.730469 109.648438 C 93.730469 109.648438 120.988281 115.332031 124.167969 126.78125 C 129.921875 147.625 129.164062 225.550781 129.164062 225.550781 C 129.164062 225.550781 145.746094 240.257812 87.597656 240.558594 C 33.3125 240.9375 42.625 224.792969 42.625 224.792969 C 42.625 224.792969 55.117188 188.785156 46.5625 125.035156 C 45.277344 115.636719 75.332031 111.164062 75.332031 111.164062 Z M 84.644531 113.363281 " fill-opacity="1" fill-rule="nonzero"/><path fill="#ffbe99" d="M 94.792969 113.285156 C 83.359375 117.835938 74.652344 111.089844 74.652344 111.089844 C 75.558594 101.234375 74.652344 87.132812 74.652344 87.132812 L 79.574219 85.164062 L 85.707031 82.660156 C 85.707031 82.660156 94.640625 76.597656 93.957031 86.679688 C 93.429688 93.730469 94.109375 104.113281 94.488281 109.648438 C 94.640625 111.847656 94.792969 113.285156 94.792969 113.285156 Z M 94.792969 113.285156 " fill-opacity="1" fill-rule="nonzero"/><path fill="#f27b57" d="M 94.488281 109.496094 C 83.660156 108.207031 75.105469 100.25 75.105469 100.25 L 79.574219 85.085938 L 85.707031 82.585938 C 85.707031 82.585938 94.640625 76.523438 93.957031 86.605469 C 93.429688 93.652344 94.035156 104.039062 94.488281 109.496094 Z M 94.488281 109.496094 " fill-opacity="1" fill-rule="nonzero"/><path fill="#ffbe99" d="M 109.933594 68.941406 C 109.933594 68.941406 124.015625 103.582031 96.988281 105.554688 C 93.503906 105.78125 90.476562 105.933594 87.75 105.933594 C 79.117188 106.007812 71.925781 99.261719 71.472656 90.621094 L 70.183594 67.121094 C 70.183594 67.121094 106.601562 49.15625 109.933594 68.941406 Z M 109.933594 68.941406 " fill-opacity="1" fill-rule="nonzero"/><path fill="#ffbe99" d="M 73.96875 82.964844 C 73.96875 82.964844 68.746094 70.152344 62.082031 76.75 C 56.933594 81.828125 64.886719 94.410156 73.441406 87.816406 C 81.996094 81.222656 73.96875 82.964844 73.96875 82.964844 Z M 73.96875 82.964844 " fill-opacity="1" fill-rule="nonzero"/><path fill="#f27b57" d="M 71.394531 83.039062 C 71.394531 83.039062 67.230469 78.492188 64.277344 80.160156 C 61.328125 81.828125 65.035156 90.089844 71.625 87.742188 C 71.699219 87.742188 67.988281 85.164062 71.394531 83.039062 Z M 71.394531 83.039062 " fill-opacity="1" fill-rule="nonzero"/><path fill="#1b2846" d="M 66.929688 67.804688 L 70.789062 77.734375 C 70.789062 77.734375 79.269531 67.804688 73.667969 63.863281 C 68.066406 59.921875 66.929688 67.804688 66.929688 67.804688 Z M 66.929688 67.804688 " fill-opacity="1" fill-rule="nonzero"/><path fill="#ffbe99" d="M 80.707031 109.722656 L 74.652344 111.089844 C 74.652344 111.089844 74.574219 128.675781 89.871094 127.539062 C 103.421875 126.550781 94.792969 113.285156 94.792969 113.285156 Z M 80.707031 109.722656 " fill-opacity="1" fill-rule="nonzero"/><path fill="#ffbe99" d="M 126.96875 180.296875 C 126.96875 180.296875 134.007812 174.082031 145.894531 172.109375 L 149.152344 194.699219 L 128.40625 199.019531 Z M 126.96875 180.296875 " fill-opacity="1" fill-rule="nonzero"/><path fill="#ffffff" d="M 141.429688 199.855469 C 107.660156 211.074219 84.796875 210.390625 69.277344 204.097656 C 57.3125 199.246094 49.742188 191.0625 44.898438 182.496094 C 38.386719 170.820312 36.949219 158.390625 36.644531 152.25 C 35.8125 135.722656 43.382812 119.046875 52.242188 122.230469 C 61.097656 125.414062 52.242188 168.773438 85.023438 174.839844 C 117.882812 180.980469 130.074219 172.867188 130.074219 172.867188 C 142.261719 177.417969 141.429688 199.855469 141.429688 199.855469 Z M 141.429688 199.855469 " fill-opacity="1" fill-rule="nonzero"/><path fill="#ffbe99" d="M 142.714844 183.859375 L 145.972656 172.1875 C 145.972656 172.1875 163.160156 168.394531 164.976562 166.652344 C 166.792969 164.984375 168.835938 173.09375 160.8125 175.292969 L 157.632812 176.734375 C 157.632812 176.734375 157.101562 187.878906 156.269531 190.152344 C 155.4375 192.425781 149.226562 194.699219 149.226562 194.699219 Z M 142.714844 183.859375 " fill-opacity="1" fill-rule="nonzero"/><path fill="#b9d3ea" d="M 41.945312 81.144531 C 41.945312 81.832031 41.910156 82.519531 41.84375 83.203125 C 41.777344 83.886719 41.675781 84.566406 41.542969 85.242188 C 41.40625 85.917969 41.242188 86.582031 41.042969 87.242188 C 40.84375 87.898438 40.609375 88.546875 40.347656 89.179688 C 40.085938 89.816406 39.792969 90.4375 39.46875 91.042969 C 39.144531 91.652344 38.792969 92.238281 38.410156 92.8125 C 38.027344 93.382812 37.621094 93.933594 37.183594 94.464844 C 36.75 94.996094 36.289062 95.507812 35.800781 95.992188 C 35.316406 96.480469 34.808594 96.941406 34.277344 97.378906 C 33.746094 97.8125 33.195312 98.222656 32.625 98.605469 C 32.050781 98.988281 31.464844 99.339844 30.859375 99.664062 C 30.253906 99.988281 29.632812 100.28125 28.996094 100.546875 C 28.363281 100.808594 27.71875 101.039062 27.058594 101.238281 C 26.402344 101.4375 25.738281 101.605469 25.0625 101.738281 C 24.390625 101.875 23.710938 101.976562 23.027344 102.042969 C 22.34375 102.109375 21.660156 102.144531 20.972656 102.144531 C 20.285156 102.144531 19.601562 102.109375 18.917969 102.042969 C 18.234375 101.976562 17.554688 101.875 16.878906 101.738281 C 16.207031 101.605469 15.542969 101.4375 14.882812 101.238281 C 14.226562 101.039062 13.582031 100.808594 12.945312 100.546875 C 12.3125 100.28125 11.691406 99.988281 11.085938 99.664062 C 10.480469 99.339844 9.890625 98.988281 9.320312 98.605469 C 8.75 98.222656 8.199219 97.8125 7.667969 97.378906 C 7.136719 96.941406 6.628906 96.480469 6.144531 95.992188 C 5.65625 95.507812 5.195312 94.996094 4.761719 94.464844 C 4.324219 93.933594 3.917969 93.382812 3.535156 92.8125 C 3.152344 92.238281 2.800781 91.652344 2.476562 91.042969 C 2.152344 90.4375 1.859375 89.816406 1.597656 89.179688 C 1.332031 88.546875 1.101562 87.898438 0.902344 87.242188 C 0.703125 86.582031 0.535156 85.917969 0.402344 85.242188 C 0.269531 84.566406 0.167969 83.886719 0.101562 83.203125 C 0.0351562 82.519531 0 81.832031 0 81.144531 C 0 80.457031 0.0351562 79.773438 0.101562 79.085938 C 0.167969 78.402344 0.269531 77.722656 0.402344 77.050781 C 0.535156 76.375 0.703125 75.707031 0.902344 75.050781 C 1.101562 74.390625 1.332031 73.746094 1.597656 73.109375 C 1.859375 72.476562 2.152344 71.855469 2.476562 71.246094 C 2.800781 70.640625 3.152344 70.050781 3.535156 69.480469 C 3.917969 68.910156 4.324219 68.355469 4.761719 67.824219 C 5.195312 67.292969 5.65625 66.785156 6.144531 66.296875 C 6.628906 65.8125 7.136719 65.351562 7.667969 64.914062 C 8.199219 64.476562 8.75 64.070312 9.320312 63.6875 C 9.890625 63.304688 10.480469 62.953125 11.085938 62.628906 C 11.691406 62.304688 12.3125 62.007812 12.945312 61.746094 C 13.582031 61.484375 14.226562 61.25 14.882812 61.050781 C 15.542969 60.851562 16.207031 60.6875 16.878906 60.550781 C 17.554688 60.417969 18.234375 60.316406 18.917969 60.25 C 19.601562 60.183594 20.285156 60.148438 20.972656 60.148438 C 21.660156 60.148438 22.34375 60.183594 23.027344 60.25 C 23.710938 60.316406 24.390625 60.417969 25.0625 60.550781 C 25.738281 60.6875 26.402344 60.851562 27.058594 61.050781 C 27.71875 61.25 28.363281 61.484375 28.996094 61.746094 C 29.632812 62.007812 30.253906 62.304688 30.859375 62.628906 C 31.464844 62.953125 32.050781 63.304688 32.625 63.6875 C 33.195312 64.070312 33.746094 64.476562 34.277344 64.914062 C 34.808594 65.351562 35.316406 65.8125 35.800781 66.296875 C 36.289062 66.785156 36.75 67.292969 37.183594 67.824219 C 37.621094 68.355469 38.027344 68.910156 38.410156 69.480469 C 38.792969 70.050781 39.144531 70.640625 39.46875 71.246094 C 39.792969 71.855469 40.085938 72.476562 40.347656 73.109375 C 40.609375 73.746094 40.84375 74.390625 41.042969 75.050781 C 41.242188 75.707031 41.40625 76.375 41.542969 77.050781 C 41.675781 77.722656 41.777344 78.402344 41.84375 79.085938 C 41.910156 79.773438 41.945312 80.457031 41.945312 81.144531 Z M 41.945312 81.144531 " fill-opacity="1" fill-rule="nonzero"/><path fill="#2e93ff" d="M 20.441406 92.667969 C 20.441406 92.667969 20.367188 92.667969 20.367188 92.667969 C 19.609375 92.894531 18.699219 92.820312 18.019531 92.363281 L 10.296875 87.589844 C 8.933594 86.753906 8.554688 85.011719 9.386719 83.722656 C 10.222656 82.359375 11.960938 81.980469 13.25 82.8125 L 18.171875 85.84375 L 25.289062 69.320312 C 25.894531 67.878906 27.558594 67.199219 28.996094 67.804688 C 30.4375 68.410156 31.117188 70.078125 30.511719 71.519531 L 22.109375 91.074219 C 21.730469 91.835938 21.125 92.441406 20.441406 92.667969 Z M 20.441406 92.667969 " fill-opacity="1" fill-rule="nonzero"/><path fill="#ffffff" d="M 24.832031 221.230469 C 24.832031 221.519531 24.804688 221.804688 24.75 222.089844 C 24.691406 222.371094 24.609375 222.644531 24.5 222.914062 C 24.390625 223.179688 24.253906 223.433594 24.09375 223.671875 C 23.933594 223.914062 23.75 224.136719 23.546875 224.339844 C 23.34375 224.542969 23.121094 224.726562 22.882812 224.886719 C 22.640625 225.046875 22.390625 225.183594 22.121094 225.292969 C 21.855469 225.402344 21.582031 225.484375 21.300781 225.542969 C 21.015625 225.597656 20.730469 225.628906 20.441406 225.628906 C 20.152344 225.628906 19.867188 225.597656 19.585938 225.542969 C 19.300781 225.484375 19.027344 225.402344 18.761719 225.292969 C 18.496094 225.183594 18.242188 225.046875 18.003906 224.886719 C 17.761719 224.726562 17.539062 224.542969 17.335938 224.339844 C 17.132812 224.136719 16.949219 223.914062 16.789062 223.671875 C 16.628906 223.433594 16.496094 223.179688 16.386719 222.914062 C 16.273438 222.644531 16.191406 222.371094 16.136719 222.089844 C 16.078125 221.804688 16.050781 221.519531 16.050781 221.230469 C 16.050781 220.941406 16.078125 220.65625 16.136719 220.371094 C 16.191406 220.089844 16.273438 219.816406 16.386719 219.546875 C 16.496094 219.28125 16.628906 219.027344 16.789062 218.789062 C 16.949219 218.546875 17.132812 218.324219 17.335938 218.121094 C 17.539062 217.917969 17.761719 217.734375 18.003906 217.574219 C 18.242188 217.414062 18.496094 217.277344 18.761719 217.167969 C 19.027344 217.058594 19.300781 216.976562 19.585938 216.917969 C 19.867188 216.863281 20.152344 216.832031 20.441406 216.832031 C 20.730469 216.832031 21.015625 216.863281 21.300781 216.917969 C 21.582031 216.976562 21.855469 217.058594 22.121094 217.167969 C 22.390625 217.277344 22.640625 217.414062 22.882812 217.574219 C 23.121094 217.734375 23.34375 217.917969 23.546875 218.121094 C 23.75 218.324219 23.933594 218.546875 24.09375 218.789062 C 24.253906 219.027344 24.390625 219.28125 24.5 219.546875 C 24.609375 219.816406 24.691406 220.089844 24.75 220.371094 C 24.804688 220.65625 24.832031 220.941406 24.832031 221.230469 Z M 24.832031 221.230469 " fill-opacity="1" fill-rule="nonzero"/><path fill="#1b2846" d="M 278.164062 264.210938 C 278.164062 264.4375 278.164062 264.664062 278.089844 264.816406 C 276.121094 295.441406 249.847656 318.867188 219.183594 317.199219 C 188.296875 315.53125 164.597656 289.074219 166.1875 258.148438 C 167.324219 237.226562 179.738281 219.5625 197.304688 210.84375 C 201.695312 208.648438 206.390625 207.054688 211.3125 206.070312 L 216.308594 272.398438 L 251.96875 213.5 C 268.625 224.035156 279.300781 243.0625 278.164062 264.210938 Z M 278.164062 264.210938 " fill-opacity="1" fill-rule="nonzero"/><path fill="#2e93ff" d="M 274.304688 259.285156 C 274.304688 259.511719 274.304688 259.738281 274.226562 259.890625 C 272.257812 290.515625 245.988281 313.9375 215.324219 312.269531 C 184.433594 310.601562 160.734375 284.148438 162.324219 253.21875 C 163.460938 232.296875 175.878906 214.636719 193.441406 205.917969 C 197.835938 203.71875 202.527344 202.128906 207.449219 201.144531 L 219.640625 261.9375 L 248.03125 208.570312 C 264.765625 219.109375 275.4375 238.132812 274.304688 259.285156 Z M 274.304688 259.285156 " fill-opacity="1" fill-rule="nonzero"/><path fill="#ffffff" d="M 228.347656 196.746094 L 219.640625 261.9375 L 191.398438 202.808594 C 200.9375 198.035156 211.765625 195.683594 223.121094 196.292969 C 224.863281 196.367188 226.605469 196.519531 228.347656 196.746094 Z M 228.347656 196.746094 " fill-opacity="1" fill-rule="nonzero"/><path fill="#b9d3ea" d="M 274.304688 259.285156 C 274.304688 259.511719 274.304688 259.738281 274.226562 259.890625 L 219.5625 261.9375 L 231.300781 201.597656 C 257.191406 207.8125 275.742188 231.765625 274.304688 259.285156 Z M 274.304688 259.285156 " fill-opacity="1" fill-rule="nonzero"/><path fill="#1b2846" d="M 219.414062 261.9375 L 188.597656 197.429688 L 188.976562 197.277344 C 199.5 192.046875 211.234375 189.621094 222.972656 190.300781 C 224.863281 190.378906 226.679688 190.605469 228.574219 190.832031 L 228.953125 190.910156 L 228.875 191.289062 Z M 189.65625 197.808594 L 219.035156 259.285156 L 228.121094 191.515625 C 226.453125 191.289062 224.710938 191.136719 222.972656 191.0625 C 211.460938 190.378906 199.953125 192.726562 189.65625 197.808594 Z M 189.65625 197.808594 " fill-opacity="1" fill-rule="nonzero"/><path fill="#2e93ff" d="M 219.414062 261.9375 L 232.054688 196.820312 L 232.433594 196.898438 C 245.910156 200.082031 258.027344 208.039062 266.429688 219.183594 C 274.984375 230.480469 279.226562 244.503906 278.46875 258.675781 C 278.46875 258.90625 278.46875 259.132812 278.390625 259.359375 L 278.390625 259.738281 Z M 232.660156 197.730469 L 220.320312 261.101562 L 277.710938 258.90625 C 277.710938 258.828125 277.710938 258.675781 277.710938 258.601562 C 278.46875 244.652344 274.226562 230.78125 265.824219 219.636719 C 257.648438 208.796875 245.835938 200.992188 232.660156 197.730469 Z M 232.660156 197.730469 " fill-opacity="1" fill-rule="nonzero"/><path fill="#1b2846" d="M 206.464844 212.363281 L 213.734375 204.023438 L 220.472656 213.121094 L 214.644531 212.816406 L 215.324219 227.597656 L 210.402344 227.292969 L 211.234375 212.4375 Z M 206.464844 212.363281 " fill-opacity="1" fill-rule="nonzero"/><path fill="#ffffff" d="M 208.28125 269.441406 C 204.648438 269.214844 201.542969 272.398438 201.394531 276.414062 C 201.164062 280.507812 203.890625 283.921875 207.527344 284.148438 C 211.160156 284.375 214.265625 281.191406 214.414062 277.171875 C 214.566406 273.082031 211.839844 269.667969 208.28125 269.441406 Z M 207.601562 281.644531 C 205.253906 281.496094 203.511719 279.296875 203.664062 276.71875 C 203.816406 274.140625 205.785156 272.09375 208.132812 272.246094 C 210.476562 272.398438 212.21875 274.597656 212.070312 277.171875 C 211.917969 279.75 209.949219 281.722656 207.601562 281.644531 Z M 207.601562 281.644531 " fill-opacity="1" fill-rule="nonzero"/><path fill="#ffffff" d="M 202.527344 297.414062 C 202.527344 297.414062 221.835938 274.292969 225.546875 270.351562 L 228.042969 272.929688 C 228.042969 272.929688 212.070312 289.757812 205.179688 298.851562 Z M 202.527344 297.414062 " fill-opacity="1" fill-rule="nonzero"/><path fill="#ffffff" d="M 218.882812 287.9375 C 216.15625 287.785156 213.808594 290.136719 213.660156 293.242188 C 213.507812 296.351562 215.550781 298.929688 218.277344 299.082031 C 221.003906 299.230469 223.347656 296.882812 223.5 293.773438 C 223.652344 290.667969 221.609375 288.089844 218.882812 287.9375 Z M 218.351562 297.1875 C 216.609375 297.109375 215.25 295.441406 215.398438 293.394531 C 215.476562 291.425781 216.988281 289.910156 218.808594 289.984375 C 220.546875 290.058594 221.910156 291.726562 221.757812 293.773438 C 221.609375 295.746094 220.09375 297.261719 218.351562 297.1875 Z M 218.351562 297.1875 " fill-opacity="1" fill-rule="nonzero"/><path fill="#1b2846" d="M 300.5 211.90625 L 288.765625 230.097656 C 288.765625 230.097656 291.1875 237.605469 299.96875 241.167969 C 308.753906 244.730469 309.507812 243.136719 309.507812 243.136719 L 315.113281 226.6875 C 315.113281 226.6875 311.933594 214.179688 300.5 211.90625 Z M 300.5 211.90625 " fill-opacity="1" fill-rule="nonzero"/><path fill="#1b2846" d="M 354.179688 222.0625 L 358.496094 243.289062 C 358.496094 243.289062 353.496094 249.355469 344.035156 249.503906 C 334.570312 249.582031 334.417969 247.914062 334.417969 247.914062 L 335.175781 230.554688 C 335.175781 230.480469 342.671875 220.019531 354.179688 222.0625 Z M 354.179688 222.0625 " fill-opacity="1" fill-rule="nonzero"/><path stroke-linecap="butt" transform="matrix(0.757117, 0, 0, 0.758035, -4.69412, -1.859062)" fill-opacity="1" fill="#ffffff" fill-rule="nonzero" stroke-linejoin="miter" d="M 435.599318 227.901859 C 435.599318 227.901859 429.299721 197.802434 419.197664 198.699079 C 412.299579 199.301995 406.799685 238.001992 406.799685 238.001992 Z M 435.599318 227.901859 " stroke="#1b2846" stroke-width="1" stroke-opacity="1" stroke-miterlimit="10"/><path stroke-linecap="butt" transform="matrix(0.757117, 0, 0, 0.758035, -4.69412, -1.859062)" fill-opacity="1" fill="#ffffff" fill-rule="nonzero" stroke-linejoin="miter" d="M 464.89941 237.002285 C 464.89941 237.002285 486.001255 211.401541 490.200986 214.998425 C 494.400717 218.600462 496.299368 242.299701 486.800958 251.699008 C 477.302548 261.098315 464.89941 237.002285 464.89941 237.002285 Z M 464.89941 237.002285 " stroke="#1b2846" stroke-width="1" stroke-opacity="1" stroke-miterlimit="10"/><path stroke-linecap="butt" transform="matrix(0.140519, -0.744864, 0.743963, 0.14069, 68.260445, 491.577688)" fill-opacity="1" fill="#ffffff" fill-rule="nonzero" stroke-linejoin="miter" d="M 489.100228 267.302526 C 489.101601 269.003462 489.024147 270.703534 488.86691 272.397673 C 488.714735 274.090856 488.481819 275.773037 488.173225 277.443258 C 487.864631 279.11348 487.484465 280.765716 487.026705 282.395854 C 486.568945 284.025992 486.037698 285.628006 485.432006 287.196825 C 484.827272 288.770714 484.153156 290.310452 483.408702 291.81097 C 482.665205 293.316558 481.854517 294.771829 480.978555 296.186923 C 480.098486 297.608044 479.160397 298.971866 478.161138 300.289485 C 477.155858 301.60299 476.098579 302.86331 474.984236 304.071401 C 473.868936 305.274422 472.699721 306.414118 471.477549 307.495558 C 470.255377 308.576999 468.988459 309.588132 467.677754 310.534028 C 466.367049 311.479923 465.011599 312.355511 463.621532 313.158878 C 462.231464 313.962246 460.80582 314.688323 459.345559 315.34218 C 457.885297 315.996037 456.403694 316.564665 454.892536 317.060116 C 453.381378 317.555567 451.849835 317.970858 450.302014 318.299964 C 448.75515 318.63414 447.197071 318.881174 445.624629 319.052162 C 444.051229 319.21808 442.477698 319.300014 440.898974 319.298918 C 439.32025 319.297823 437.747416 319.216856 436.174453 319.051904 C 434.605595 318.880926 433.043586 318.635146 431.496637 318.302511 C 429.949688 317.969877 428.418757 317.555458 426.908908 317.058298 C 425.400016 316.566208 423.912207 315.991378 422.452457 315.342989 C 420.996813 314.688574 419.56923 313.960601 418.179835 313.157158 C 416.785375 312.354671 415.435125 311.480827 414.12402 310.536581 C 412.806893 309.588223 411.540954 308.57769 410.324287 307.494844 C 409.103515 306.418023 407.932972 305.273959 406.81868 304.066764 C 405.700282 302.865595 404.644157 301.605408 403.640176 300.288117 C 402.641259 298.96987 401.701466 297.603701 400.820797 296.189611 C 399.945191 294.774564 399.13473 293.315709 398.389414 291.813047 C 397.649162 290.309427 396.970906 288.773095 396.369838 287.201182 C 395.762748 285.625156 395.234761 284.023687 394.774791 282.39362 C 394.314822 280.763552 393.934912 279.113112 393.624935 277.444213 C 393.320022 275.774357 393.085999 274.091112 392.933951 272.397634 C 392.775882 270.700042 392.701704 269.002357 392.700331 267.301422 C 392.698 265.595417 392.776411 263.900415 392.932691 262.201205 C 393.084865 260.508022 393.317781 258.825842 393.626376 257.15562 C 393.93497 255.485399 394.315136 253.833162 394.773853 252.208094 C 395.231613 250.577956 395.76286 248.975942 396.367595 247.402053 C 396.972329 245.828165 397.646445 244.288426 398.390899 242.787908 C 399.135354 241.287391 399.945083 239.827049 400.821046 238.411955 C 401.702072 236.995904 402.639204 235.627013 403.638463 234.309394 C 404.643743 232.995889 405.701022 231.735569 406.816322 230.532548 C 407.935729 229.3235 409.09988 228.184761 410.322052 227.10332 C 411.544224 226.021879 412.811142 225.010746 414.121847 224.064851 C 415.432551 223.118955 416.788001 222.243368 418.178069 221.44 C 419.568137 220.636633 420.993781 219.910556 422.454042 219.256699 C 423.915261 218.607912 425.395907 218.034214 426.907065 217.538763 C 428.418223 217.043312 429.950723 216.63309 431.497587 216.298914 C 433.044451 215.964738 434.60253 215.717704 436.17593 215.551786 C 437.748372 215.380798 439.321903 215.298865 440.900627 215.29996 C 442.479351 215.301056 444.052184 215.382023 445.626106 215.552044 C 447.194006 215.717953 448.756973 215.968803 450.303922 216.301437 C 451.85087 216.634071 453.380844 217.04342 454.890693 217.54058 C 456.399584 218.03267 457.887394 218.607501 459.347144 219.25589 C 460.802787 219.910304 462.230371 220.638277 463.619766 221.441721 C 465.014225 222.244208 466.364476 223.118052 467.675581 224.062297 C 468.992708 225.010656 470.258647 226.021188 471.475313 227.104035 C 472.697044 228.185925 473.866629 229.32492 474.980921 230.532115 C 476.099319 231.733284 477.155444 232.99347 478.159425 234.310761 C 479.158341 235.629008 480.098135 236.995177 480.978804 238.409268 C 481.85441 239.824314 482.664871 241.283169 483.410186 242.785832 C 484.150439 244.289451 484.828694 245.825783 485.430721 247.402766 C 486.036853 248.973723 486.56484 250.575191 487.02481 252.205259 C 487.484779 253.835326 487.864689 255.485766 488.174666 257.154665 C 488.479579 258.824521 488.713602 260.507767 488.865649 262.201245 C 489.023718 263.898836 489.097897 265.596521 489.100228 267.302526 Z M 489.100228 267.302526 " stroke="#1b2846" stroke-width="1" stroke-opacity="1" stroke-miterlimit="10"/><path fill="#b9d3ea" d="M 332.078125 193.609375 C 332.71875 193.730469 333.351562 193.875 333.984375 194.042969 C 334.613281 194.207031 335.230469 194.394531 335.84375 194.605469 C 336.453125 194.816406 337.054688 195.046875 337.640625 195.296875 C 338.230469 195.546875 338.800781 195.820312 339.359375 196.109375 C 339.917969 196.398438 340.460938 196.707031 340.984375 197.035156 C 341.507812 197.363281 342.011719 197.703125 342.496094 198.0625 C 342.980469 198.425781 343.441406 198.796875 343.882812 199.1875 C 344.320312 199.578125 344.734375 199.980469 345.125 200.394531 C 345.519531 200.808594 345.882812 201.234375 346.222656 201.671875 C 346.558594 202.109375 346.871094 202.554688 347.152344 203.011719 C 347.4375 203.464844 347.691406 203.925781 347.914062 204.394531 C 348.140625 204.863281 348.332031 205.335938 348.496094 205.8125 C 348.660156 206.289062 348.792969 206.769531 348.894531 207.25 C 349 207.730469 349.070312 208.210938 349.109375 208.691406 C 349.144531 209.171875 349.152344 209.648438 349.128906 210.125 C 349.105469 210.601562 349.046875 211.070312 348.960938 211.539062 C 348.871094 212.003906 348.753906 212.460938 348.601562 212.914062 C 348.453125 213.367188 348.273438 213.808594 348.058594 214.242188 C 347.847656 214.675781 347.609375 215.097656 347.339844 215.507812 C 347.066406 215.917969 346.769531 216.316406 346.441406 216.699219 C 346.117188 217.085938 345.765625 217.453125 345.382812 217.808594 C 345.003906 218.160156 344.601562 218.5 344.171875 218.820312 C 343.742188 219.136719 343.289062 219.441406 342.816406 219.722656 C 342.339844 220.007812 341.847656 220.269531 341.332031 220.515625 C 340.816406 220.757812 340.28125 220.980469 339.730469 221.183594 C 339.179688 221.382812 338.613281 221.566406 338.03125 221.722656 C 337.449219 221.878906 336.855469 222.015625 336.25 222.128906 C 335.644531 222.242188 335.027344 222.332031 334.402344 222.398438 C 333.777344 222.464844 333.144531 222.507812 332.503906 222.527344 C 331.867188 222.546875 331.222656 222.542969 330.578125 222.511719 C 329.933594 222.484375 329.285156 222.433594 328.640625 222.359375 C 327.992188 222.285156 327.351562 222.1875 326.710938 222.066406 C 326.070312 221.945312 325.433594 221.800781 324.804688 221.632812 C 324.175781 221.46875 323.554688 221.277344 322.945312 221.070312 C 322.332031 220.859375 321.734375 220.628906 321.144531 220.378906 C 320.558594 220.125 319.984375 219.855469 319.425781 219.566406 C 318.867188 219.277344 318.328125 218.96875 317.804688 218.640625 C 317.28125 218.3125 316.777344 217.972656 316.292969 217.613281 C 315.808594 217.25 315.347656 216.878906 314.90625 216.488281 C 314.464844 216.097656 314.050781 215.695312 313.660156 215.28125 C 313.269531 214.867188 312.90625 214.441406 312.566406 214.003906 C 312.226562 213.566406 311.917969 213.121094 311.632812 212.664062 C 311.351562 212.210938 311.097656 211.75 310.871094 211.28125 C 310.648438 210.8125 310.453125 210.339844 310.289062 209.863281 C 310.125 209.386719 309.992188 208.90625 309.890625 208.425781 C 309.789062 207.945312 309.71875 207.464844 309.679688 206.984375 C 309.640625 206.503906 309.632812 206.027344 309.660156 205.550781 C 309.683594 205.074219 309.738281 204.605469 309.828125 204.136719 C 309.914062 203.671875 310.035156 203.210938 310.183594 202.761719 C 310.335938 202.308594 310.515625 201.867188 310.726562 201.433594 C 310.9375 201 311.179688 200.578125 311.449219 200.167969 C 311.71875 199.757812 312.015625 199.359375 312.34375 198.976562 C 312.671875 198.589844 313.023438 198.222656 313.402344 197.867188 C 313.78125 197.515625 314.1875 197.175781 314.617188 196.855469 C 315.046875 196.535156 315.496094 196.234375 315.972656 195.953125 C 316.445312 195.667969 316.941406 195.40625 317.457031 195.160156 C 317.972656 194.917969 318.503906 194.695312 319.054688 194.492188 C 319.605469 194.289062 320.171875 194.109375 320.753906 193.953125 C 321.335938 193.792969 321.929688 193.660156 322.539062 193.546875 C 323.144531 193.433594 323.761719 193.34375 324.386719 193.277344 C 325.011719 193.210938 325.644531 193.167969 326.28125 193.148438 C 326.921875 193.128906 327.5625 193.132812 328.207031 193.164062 C 328.855469 193.191406 329.5 193.242188 330.148438 193.316406 C 330.792969 193.390625 331.4375 193.488281 332.078125 193.609375 Z M 332.078125 193.609375 " fill-opacity="1" fill-rule="nonzero"/><path fill="#1b2846" d="M 324.679688 202.90625 C 324.898438 202.945312 325.109375 203.019531 325.3125 203.128906 C 325.515625 203.234375 325.707031 203.371094 325.886719 203.539062 C 326.0625 203.707031 326.226562 203.902344 326.375 204.121094 C 326.523438 204.34375 326.652344 204.589844 326.761719 204.859375 C 326.871094 205.125 326.960938 205.410156 327.03125 205.714844 C 327.101562 206.019531 327.148438 206.335938 327.171875 206.664062 C 327.199219 206.988281 327.199219 207.324219 327.179688 207.664062 C 327.160156 208 327.121094 208.339844 327.054688 208.675781 C 326.992188 209.015625 326.90625 209.34375 326.804688 209.667969 C 326.699219 209.992188 326.574219 210.300781 326.429688 210.597656 C 326.289062 210.890625 326.128906 211.167969 325.953125 211.425781 C 325.777344 211.683594 325.589844 211.917969 325.390625 212.125 C 325.191406 212.335938 324.980469 212.515625 324.761719 212.667969 C 324.542969 212.824219 324.320312 212.945312 324.09375 213.035156 C 323.867188 213.125 323.640625 213.183594 323.410156 213.207031 C 323.183594 213.234375 322.957031 213.226562 322.738281 213.183594 C 322.519531 213.140625 322.308594 213.066406 322.105469 212.960938 C 321.902344 212.855469 321.710938 212.71875 321.53125 212.550781 C 321.351562 212.382812 321.191406 212.1875 321.042969 211.964844 C 320.894531 211.742188 320.765625 211.5 320.65625 211.230469 C 320.546875 210.960938 320.457031 210.675781 320.386719 210.375 C 320.316406 210.070312 320.269531 209.753906 320.246094 209.425781 C 320.21875 209.097656 320.214844 208.765625 320.234375 208.425781 C 320.253906 208.085938 320.296875 207.75 320.359375 207.410156 C 320.425781 207.074219 320.507812 206.742188 320.613281 206.421875 C 320.71875 206.097656 320.84375 205.789062 320.988281 205.492188 C 321.128906 205.195312 321.289062 204.921875 321.464844 204.664062 C 321.636719 204.40625 321.828125 204.171875 322.027344 203.960938 C 322.226562 203.753906 322.4375 203.570312 322.65625 203.417969 C 322.871094 203.265625 323.09375 203.144531 323.324219 203.054688 C 323.550781 202.964844 323.777344 202.90625 324.007812 202.878906 C 324.234375 202.855469 324.457031 202.863281 324.679688 202.90625 Z M 324.679688 202.90625 " fill-opacity="1" fill-rule="nonzero"/><path fill="#1b2846" d="M 336 205.03125 C 336.21875 205.074219 336.429688 205.148438 336.632812 205.253906 C 336.835938 205.359375 337.027344 205.496094 337.207031 205.664062 C 337.386719 205.832031 337.550781 206.027344 337.695312 206.25 C 337.84375 206.472656 337.972656 206.714844 338.082031 206.984375 C 338.195312 207.25 338.285156 207.539062 338.351562 207.839844 C 338.421875 208.144531 338.46875 208.460938 338.496094 208.789062 C 338.519531 209.117188 338.523438 209.449219 338.503906 209.789062 C 338.484375 210.128906 338.441406 210.464844 338.378906 210.804688 C 338.316406 211.140625 338.230469 211.472656 338.125 211.792969 C 338.019531 212.117188 337.894531 212.425781 337.753906 212.722656 C 337.609375 213.019531 337.449219 213.292969 337.277344 213.550781 C 337.101562 213.808594 336.914062 214.042969 336.710938 214.253906 C 336.511719 214.460938 336.300781 214.644531 336.085938 214.796875 C 335.867188 214.949219 335.644531 215.070312 335.414062 215.160156 C 335.1875 215.25 334.960938 215.308594 334.734375 215.335938 C 334.503906 215.359375 334.28125 215.351562 334.0625 215.308594 C 333.839844 215.269531 333.628906 215.195312 333.425781 215.085938 C 333.222656 214.980469 333.03125 214.84375 332.855469 214.675781 C 332.675781 214.507812 332.511719 214.3125 332.363281 214.09375 C 332.21875 213.871094 332.089844 213.625 331.976562 213.355469 C 331.867188 213.089844 331.777344 212.804688 331.707031 212.5 C 331.640625 212.195312 331.59375 211.878906 331.566406 211.550781 C 331.542969 211.226562 331.539062 210.890625 331.558594 210.550781 C 331.578125 210.214844 331.621094 209.875 331.683594 209.539062 C 331.746094 209.199219 331.832031 208.871094 331.9375 208.546875 C 332.042969 208.222656 332.164062 207.914062 332.308594 207.617188 C 332.453125 207.324219 332.609375 207.046875 332.785156 206.789062 C 332.960938 206.53125 333.148438 206.296875 333.347656 206.089844 C 333.550781 205.878906 333.757812 205.699219 333.976562 205.546875 C 334.195312 205.390625 334.417969 205.269531 334.644531 205.179688 C 334.871094 205.089844 335.101562 205.03125 335.328125 205.007812 C 335.554688 204.980469 335.78125 204.988281 336 205.03125 Z M 336 205.03125 " fill-opacity="1" fill-rule="nonzero"/><path fill="#1b2846" d="M 327.527344 169.382812 C 339.945312 168.851562 347.441406 173.703125 347.441406 173.703125 L 346.003906 171.351562 C 335.023438 166.195312 328.589844 167.941406 328.589844 167.941406 Z M 327.527344 169.382812 " fill-opacity="1" fill-rule="nonzero"/><path fill="#1b2846" d="M 346.152344 146.183594 C 345.546875 145.882812 344.941406 145.730469 344.335938 145.503906 C 343.957031 145.351562 343.65625 145.199219 343.351562 145.046875 C 342.746094 144.59375 342.824219 143.910156 343.503906 143.609375 C 343.65625 143.53125 343.882812 143.457031 344.109375 143.457031 C 344.867188 143.378906 345.625 143.457031 346.382812 143.757812 C 346.757812 143.910156 346.835938 143.835938 346.988281 143.53125 C 347.0625 143.152344 347.214844 142.773438 347.289062 142.394531 C 347.363281 142.167969 347.214844 141.941406 346.988281 141.863281 C 346.53125 141.710938 346.078125 141.5625 345.546875 141.484375 C 344.941406 141.410156 344.941406 141.410156 344.867188 140.804688 C 344.792969 139.894531 344.792969 139.894531 343.882812 139.96875 C 343.730469 139.96875 343.65625 139.96875 343.503906 139.96875 C 343.050781 139.96875 343.050781 140.046875 343.050781 140.5 C 343.050781 140.652344 343.050781 140.878906 343.050781 141.03125 C 343.050781 141.5625 343.050781 141.5625 342.519531 141.789062 C 341.234375 142.320312 340.476562 143.230469 340.476562 144.59375 C 340.476562 145.804688 341.15625 146.640625 342.21875 147.171875 C 342.898438 147.550781 343.578125 147.699219 344.261719 147.929688 C 344.5625 148.003906 344.792969 148.15625 345.019531 148.308594 C 345.699219 148.761719 345.625 149.671875 344.867188 150.050781 C 344.488281 150.277344 344.035156 150.277344 343.578125 150.277344 C 342.898438 150.203125 342.21875 150.050781 341.609375 149.824219 C 341.234375 149.671875 341.15625 149.671875 341.003906 150.125 C 340.929688 150.429688 340.855469 150.808594 340.777344 151.113281 C 340.703125 151.566406 340.703125 151.644531 341.15625 151.871094 C 341.761719 152.097656 342.367188 152.25 342.972656 152.25 C 343.429688 152.324219 343.503906 152.324219 343.503906 152.78125 C 343.503906 153.007812 343.503906 153.234375 343.578125 153.460938 C 343.578125 153.765625 343.730469 153.917969 344.035156 153.917969 C 344.335938 153.917969 344.714844 153.917969 345.019531 153.839844 C 345.320312 153.839844 345.398438 153.691406 345.398438 153.386719 C 345.398438 153.082031 345.398438 152.78125 345.320312 152.476562 C 345.320312 152.171875 345.398438 152.023438 345.699219 151.945312 C 346.382812 151.71875 346.988281 151.339844 347.363281 150.808594 C 348.578125 149.292969 348.046875 147.09375 346.152344 146.183594 Z M 346.152344 146.183594 " fill-opacity="1" fill-rule="nonzero"/><path fill="#1b2846" d="M 341.003906 158.542969 C 336.085938 157.253906 332.375 153.007812 332.070312 147.851562 C 331.921875 144.820312 332.980469 141.863281 335.023438 139.589844 C 337.21875 137.164062 340.171875 135.800781 343.429688 135.648438 C 350.015625 135.421875 355.617188 140.425781 355.921875 146.792969 C 356.070312 149.898438 354.9375 152.855469 352.816406 155.128906 C 350.695312 157.402344 347.742188 158.769531 344.5625 158.921875 C 343.429688 158.996094 342.21875 158.84375 341.003906 158.542969 Z M 343.503906 136.253906 C 340.398438 136.40625 337.523438 137.695312 335.476562 139.96875 C 333.511719 142.167969 332.527344 144.972656 332.675781 147.851562 C 333.054688 153.917969 338.429688 158.617188 344.714844 158.390625 C 347.742188 158.238281 350.546875 156.949219 352.511719 154.828125 C 354.558594 152.628906 355.617188 149.824219 355.464844 146.941406 C 355.164062 140.804688 349.789062 136.027344 343.503906 136.253906 Z M 343.503906 136.253906 " fill-opacity="1" fill-rule="nonzero"/><path fill="#ffffff" d="M 34.828125 196.746094 C 34.828125 197.027344 34.773438 197.296875 34.664062 197.558594 C 34.558594 197.816406 34.40625 198.046875 34.207031 198.246094 C 34.007812 198.445312 33.777344 198.597656 33.519531 198.707031 C 33.257812 198.816406 32.988281 198.867188 32.707031 198.867188 C 32.425781 198.867188 32.15625 198.816406 31.894531 198.707031 C 31.636719 198.597656 31.40625 198.445312 31.207031 198.246094 C 31.007812 198.046875 30.855469 197.816406 30.75 197.558594 C 30.640625 197.296875 30.585938 197.027344 30.585938 196.746094 C 30.585938 196.464844 30.640625 196.195312 30.75 195.933594 C 30.855469 195.671875 31.007812 195.445312 31.207031 195.246094 C 31.40625 195.046875 31.636719 194.894531 31.894531 194.785156 C 32.15625 194.675781 32.425781 194.625 32.707031 194.625 C 32.988281 194.625 33.257812 194.675781 33.519531 194.785156 C 33.777344 194.894531 34.007812 195.046875 34.207031 195.246094 C 34.40625 195.445312 34.558594 195.671875 34.664062 195.933594 C 34.773438 196.195312 34.828125 196.464844 34.828125 196.746094 Z M 34.828125 196.746094 " fill-opacity="1" fill-rule="nonzero"/><path fill="#ffffff" d="M 344.867188 278.386719 C 344.867188 278.785156 344.828125 279.179688 344.75 279.570312 C 344.671875 279.960938 344.558594 280.339844 344.40625 280.707031 C 344.253906 281.074219 344.066406 281.425781 343.847656 281.753906 C 343.625 282.085938 343.375 282.394531 343.09375 282.675781 C 342.8125 282.957031 342.503906 283.207031 342.175781 283.429688 C 341.84375 283.648438 341.496094 283.835938 341.128906 283.988281 C 340.761719 284.140625 340.382812 284.257812 339.992188 284.335938 C 339.601562 284.410156 339.207031 284.449219 338.808594 284.449219 C 338.410156 284.449219 338.019531 284.410156 337.628906 284.335938 C 337.238281 284.257812 336.859375 284.140625 336.492188 283.988281 C 336.125 283.835938 335.777344 283.648438 335.445312 283.429688 C 335.113281 283.207031 334.808594 282.957031 334.527344 282.675781 C 334.246094 282.394531 333.996094 282.085938 333.773438 281.753906 C 333.550781 281.425781 333.367188 281.074219 333.214844 280.707031 C 333.0625 280.339844 332.945312 279.960938 332.871094 279.570312 C 332.792969 279.179688 332.753906 278.785156 332.753906 278.386719 C 332.753906 277.988281 332.792969 277.59375 332.871094 277.203125 C 332.945312 276.8125 333.0625 276.433594 333.214844 276.066406 C 333.367188 275.699219 333.550781 275.347656 333.773438 275.015625 C 333.996094 274.6875 334.246094 274.378906 334.527344 274.097656 C 334.808594 273.816406 335.113281 273.566406 335.445312 273.34375 C 335.777344 273.121094 336.125 272.9375 336.492188 272.785156 C 336.859375 272.632812 337.238281 272.515625 337.628906 272.4375 C 338.019531 272.359375 338.410156 272.320312 338.808594 272.320312 C 339.207031 272.320312 339.601562 272.359375 339.992188 272.4375 C 340.382812 272.515625 340.761719 272.632812 341.128906 272.785156 C 341.496094 272.9375 341.84375 273.121094 342.175781 273.34375 C 342.503906 273.566406 342.8125 273.816406 343.09375 274.097656 C 343.375 274.378906 343.625 274.6875 343.847656 275.015625 C 344.066406 275.347656 344.253906 275.699219 344.40625 276.066406 C 344.558594 276.433594 344.671875 276.8125 344.75 277.203125 C 344.828125 277.59375 344.867188 277.988281 344.867188 278.386719 Z M 344.867188 278.386719 " fill-opacity="1" fill-rule="nonzero"/><path fill="#ffffff" d="M 329.269531 305.222656 C 329.269531 305.59375 329.199219 305.949219 329.058594 306.292969 C 328.914062 306.636719 328.710938 306.941406 328.449219 307.203125 C 328.1875 307.46875 327.882812 307.667969 327.539062 307.8125 C 327.199219 307.953125 326.839844 308.027344 326.46875 308.027344 C 326.097656 308.027344 325.738281 307.953125 325.398438 307.8125 C 325.054688 307.667969 324.75 307.46875 324.488281 307.203125 C 324.226562 306.941406 324.023438 306.636719 323.878906 306.292969 C 323.738281 305.949219 323.667969 305.59375 323.667969 305.222656 C 323.667969 304.847656 323.738281 304.492188 323.878906 304.148438 C 324.023438 303.804688 324.226562 303.5 324.488281 303.238281 C 324.75 302.972656 325.054688 302.773438 325.398438 302.628906 C 325.738281 302.488281 326.097656 302.417969 326.46875 302.417969 C 326.839844 302.417969 327.199219 302.488281 327.539062 302.628906 C 327.882812 302.773438 328.1875 302.972656 328.449219 303.238281 C 328.710938 303.5 328.914062 303.804688 329.058594 304.148438 C 329.199219 304.492188 329.269531 304.847656 329.269531 305.222656 Z M 329.269531 305.222656 " fill-opacity="1" fill-rule="nonzero"/><path fill="#b9d3ea" d="M 136.433594 50.976562 C 136.433594 51.5 136.332031 52 136.132812 52.484375 C 135.933594 52.96875 135.648438 53.394531 135.28125 53.761719 C 134.910156 54.132812 134.484375 54.417969 134.003906 54.617188 C 133.519531 54.816406 133.015625 54.917969 132.496094 54.917969 C 131.972656 54.917969 131.472656 54.816406 130.988281 54.617188 C 130.507812 54.417969 130.082031 54.132812 129.710938 53.761719 C 129.34375 53.394531 129.058594 52.96875 128.859375 52.484375 C 128.660156 52 128.558594 51.5 128.558594 50.976562 C 128.558594 50.453125 128.660156 49.949219 128.859375 49.46875 C 129.058594 48.984375 129.34375 48.558594 129.710938 48.1875 C 130.082031 47.820312 130.507812 47.535156 130.988281 47.335938 C 131.472656 47.132812 131.972656 47.035156 132.496094 47.035156 C 133.015625 47.035156 133.519531 47.132812 134.003906 47.335938 C 134.484375 47.535156 134.910156 47.820312 135.28125 48.1875 C 135.648438 48.558594 135.933594 48.984375 136.132812 49.46875 C 136.332031 49.949219 136.433594 50.453125 136.433594 50.976562 Z M 136.433594 50.976562 " fill-opacity="1" fill-rule="nonzero"/></svg>