<svg xmlns="http://www.w3.org/2000/svg" xmlns:xlink="http://www.w3.org/1999/xlink" width="467" zoomAndPan="magnify" viewBox="0 0 350.25 129.749996" height="173" preserveAspectRatio="xMidYMid meet" version="1.0"><defs><filter x="0%" y="0%" width="100%" height="100%" id="d259a31a1c"><feColorMatrix values="0 0 0 0 1 0 0 0 0 1 0 0 0 0 1 0 0 0 1 0" color-interpolation-filters="sRGB"/></filter><g/><clipPath id="44628f30ff"><path d="M 17 0.015625 L 133.214844 0.015625 L 133.214844 102.542969 L 17 102.542969 Z M 17 0.015625 " clip-rule="nonzero"/></clipPath><mask id="d645060ade"><g filter="url(#d259a31a1c)"><rect x="-35.025" width="420.3" fill="#000000" y="-12.975" height="155.699995" fill-opacity="0.71"/></g></mask><clipPath id="82415e47a8"><path d="M 0.929688 0.53125 L 131.101562 0.53125 L 131.101562 17.78125 L 0.929688 17.78125 Z M 0.929688 0.53125 " clip-rule="nonzero"/></clipPath><clipPath id="d3dedbdd28"><path d="M 65.992188 0.53125 C 30.058594 0.53125 0.929688 4.390625 0.929688 9.15625 C 0.929688 13.917969 30.058594 17.78125 65.992188 17.78125 C 101.925781 17.78125 131.054688 13.917969 131.054688 9.15625 C 131.054688 4.390625 101.925781 0.53125 65.992188 0.53125 Z M 65.992188 0.53125 " clip-rule="nonzero"/></clipPath><clipPath id="8b62f94f90"><rect x="0" width="132" y="0" height="18"/></clipPath></defs><path fill="#000000" d="M 72.789062 67.734375 L 60.890625 67.734375 L 60.890625 64.128906 L 72.789062 64.128906 C 75.515625 64.128906 77.734375 61.914062 77.734375 59.183594 L 77.734375 57.050781 C 77.734375 54.324219 75.515625 52.101562 72.789062 52.101562 L 67.636719 52.101562 C 62.925781 52.101562 59.085938 48.273438 59.085938 43.554688 C 59.085938 38.839844 62.925781 35.003906 67.636719 35.003906 L 79.535156 35.003906 L 79.535156 38.609375 L 67.636719 38.609375 C 64.910156 38.609375 62.691406 40.824219 62.691406 43.554688 C 62.691406 46.28125 64.910156 48.496094 67.636719 48.496094 L 72.789062 48.496094 C 77.5 48.496094 81.339844 52.332031 81.339844 57.050781 L 81.339844 59.183594 C 81.339844 63.898438 77.5 67.734375 72.789062 67.734375 " fill-opacity="1" fill-rule="nonzero"/><path fill="#000000" d="M 72.015625 72.394531 L 68.410156 72.394531 L 68.410156 30.34375 L 72.015625 30.34375 L 72.015625 72.394531 " fill-opacity="1" fill-rule="nonzero"/><g clip-path="url(#44628f30ff)"><path fill="#000000" d="M 83.5625 99 L 99.078125 99 L 99.078125 85.386719 L 100.027344 84.875 C 108.894531 80.164062 115.695312 73.273438 119.183594 65.476562 L 119.652344 64.414062 L 129.5625 64.414062 L 129.5625 46.800781 L 121.34375 46.800781 L 121.003906 45.441406 C 118.851562 36.847656 112.867188 28.964844 104.15625 23.25 L 103.226562 22.636719 L 105.28125 5.363281 L 89.992188 16.660156 L 89.132812 16.414062 C 83.457031 14.765625 77.488281 13.9375 71.390625 13.9375 C 43.523438 13.9375 20.855469 31.386719 20.855469 52.839844 C 20.855469 64.933594 27.996094 76.132812 40.433594 83.566406 L 41.3125 84.09375 L 41.3125 99 L 56.828125 99 L 56.828125 90.132812 L 58.972656 90.554688 C 66.261719 91.976562 74.066406 92.117188 81.480469 90.960938 L 83.5625 90.640625 Z M 100.175781 102.605469 L 82.457031 102.605469 C 81.078125 102.605469 79.957031 101.484375 79.957031 100.105469 L 79.957031 94.8125 C 73.480469 95.617188 66.804688 95.503906 60.433594 94.476562 L 60.433594 100.105469 C 60.433594 101.484375 59.3125 102.605469 57.925781 102.605469 L 40.207031 102.605469 C 38.828125 102.605469 37.707031 101.484375 37.707031 100.105469 L 37.707031 86.128906 C 24.695312 78.019531 17.25 65.941406 17.25 52.839844 C 17.25 29.402344 41.539062 10.332031 71.390625 10.332031 C 77.523438 10.332031 83.535156 11.128906 89.273438 12.703125 L 105.703125 0.570312 C 106.414062 0.0429688 107.371094 -0.015625 108.148438 0.429688 C 108.914062 0.878906 109.34375 1.738281 109.238281 2.625 L 107.070312 20.863281 C 115.582031 26.71875 121.582031 34.574219 124.132812 43.195312 L 130.667969 43.195312 C 132.046875 43.195312 133.167969 44.324219 133.167969 45.695312 L 133.167969 65.511719 C 133.167969 66.890625 132.046875 68.015625 130.667969 68.015625 L 121.976562 68.015625 C 118.175781 75.816406 111.386719 82.683594 102.683594 87.535156 L 102.683594 100.105469 C 102.683594 101.484375 101.5625 102.605469 100.175781 102.605469 " fill-opacity="1" fill-rule="nonzero"/></g><path fill="#000000" d="M 10.449219 62.1875 C 4.710938 62.1875 0.046875 57.519531 0.046875 51.785156 C 0.046875 48.925781 1.238281 46.160156 3.328125 44.203125 L 5.800781 46.828125 C 4.414062 48.132812 3.652344 49.890625 3.652344 51.785156 C 3.652344 55.535156 6.703125 58.585938 10.449219 58.585938 C 14.203125 58.585938 17.25 55.535156 17.25 51.785156 L 20.855469 51.785156 C 20.855469 57.519531 16.1875 62.1875 10.449219 62.1875 " fill-opacity="1" fill-rule="nonzero"/><g mask="url(#d645060ade)"><g transform="matrix(1, 0, 0, 1, 2, 111)"><g clip-path="url(#8b62f94f90)"><g clip-path="url(#82415e47a8)"><g clip-path="url(#d3dedbdd28)"><path fill="#afbcd5" d="M 0.929688 0.53125 L 131.035156 0.53125 L 131.035156 17.78125 L 0.929688 17.78125 Z M 0.929688 0.53125 " fill-opacity="1" fill-rule="nonzero"/></g></g></g></g></g><g fill="#000000" fill-opacity="1"><g transform="translate(147.800925, 78.710842)"><g><path d="M 18.777344 0 L 25.792969 0 L 18.183594 -11.089844 C 18.875 -11.285156 19.46875 -11.523438 20.003906 -11.820312 C 22.886719 -13.339844 24.054688 -16.1875 24.054688 -19.765625 C 24.054688 -23.164062 22.90625 -25.871094 20.121094 -27.355469 C 18.636719 -28.105469 16.722656 -28.558594 13.085938 -28.558594 L 3.695312 -28.558594 L 3.695312 0 L 9.625 0 L 9.625 -10.535156 L 12.136719 -10.535156 Z M 9.625 -23.597656 L 12.253906 -23.597656 C 14.546875 -23.597656 15.832031 -23.460938 16.742188 -22.769531 C 17.589844 -22.097656 18.085938 -20.992188 18.085938 -19.390625 C 18.085938 -17.710938 17.589844 -16.582031 16.621094 -15.910156 C 15.753906 -15.296875 14.507812 -15.199219 12.253906 -15.199219 L 9.625 -15.199219 Z M 9.625 -23.597656 "/></g></g></g><g fill="#000000" fill-opacity="1"><g transform="translate(176.23809, 78.710842)"><g><path d="M 16.34375 0.394531 C 24.726562 0.394531 30.933594 -5.335938 30.933594 -14.289062 C 30.933594 -23.261719 24.726562 -28.957031 16.34375 -28.957031 C 7.945312 -28.957031 1.738281 -23.261719 1.738281 -14.289062 C 1.738281 -5.335938 7.945312 0.394531 16.34375 0.394531 Z M 16.34375 -5.039062 C 11.425781 -5.039062 7.648438 -8.5 7.648438 -14.289062 C 7.648438 -20.0625 11.425781 -23.5 16.34375 -23.5 C 21.265625 -23.5 25.042969 -20.0625 25.042969 -14.289062 C 25.042969 -8.5 21.265625 -5.039062 16.34375 -5.039062 Z M 16.34375 -5.039062 "/></g></g></g><g fill="#000000" fill-opacity="1"><g transform="translate(210.505423, 78.710842)"><g><path d="M 19.035156 -15.082031 C 21.265625 -16.167969 22.355469 -18.222656 22.355469 -20.734375 C 22.355469 -25.59375 19.113281 -28.558594 12.945312 -28.558594 L 3.695312 -28.558594 L 3.695312 0 L 15.457031 0 C 21.484375 0 24.410156 -3.183594 24.410156 -8.003906 C 24.410156 -12.078125 22.253906 -14.191406 19.035156 -15.082031 Z M 13.003906 -23.640625 C 15.652344 -23.640625 16.898438 -22.253906 16.898438 -20.359375 C 16.898438 -18.421875 15.792969 -16.917969 13.261719 -16.917969 L 9.40625 -16.917969 L 9.40625 -23.640625 Z M 14.347656 -5.078125 L 9.40625 -5.078125 L 9.40625 -12.351562 L 14.230469 -12.351562 C 17.570312 -12.351562 18.65625 -10.554688 18.65625 -8.65625 C 18.65625 -6.800781 17.550781 -5.078125 14.347656 -5.078125 Z M 14.347656 -5.078125 "/></g></g></g><g fill="#000000" fill-opacity="1"><g transform="translate(238.073007, 78.710842)"><g><path d="M 22.808594 0 L 28.875 0 L 18.363281 -28.558594 L 11.109375 -28.558594 L 0.59375 0 L 6.660156 0 L 8.734375 -5.890625 L 20.734375 -5.890625 Z M 10.476562 -10.851562 L 14.746094 -22.964844 L 18.992188 -10.851562 Z M 10.476562 -10.851562 "/></g></g></g><g fill="#000000" fill-opacity="1"><g transform="translate(269.118922, 78.710842)"><g><path d="M 23.203125 -28.558594 L 23.203125 -8.261719 L 10.476562 -28.558594 L 3.695312 -28.558594 L 3.695312 0 L 9.605469 0 L 9.605469 -20.417969 L 22.253906 0 L 29.113281 0 L 29.113281 -28.558594 Z M 23.203125 -28.558594 "/></g></g></g><g fill="#000000" fill-opacity="1"><g transform="translate(303.504838, 78.710842)"><g><path d="M 16.761719 -14.902344 L 27.828125 -28.558594 L 20.59375 -28.558594 L 11.621094 -17.332031 L 9.625 -17.332031 L 9.625 -28.558594 L 3.695312 -28.558594 L 3.695312 0 L 9.625 0 L 9.625 -12.136719 L 11.660156 -12.136719 L 20.59375 0 L 28.164062 0 Z M 16.761719 -14.902344 "/></g></g></g></svg>