<svg xmlns="http://www.w3.org/2000/svg" xmlns:xlink="http://www.w3.org/1999/xlink" width="500" zoomAndPan="magnify" viewBox="0 0 375 374.999991" height="500" preserveAspectRatio="xMidYMid meet" version="1.0"><path fill="#211b18" d="M 236.683594 71.050781 C 235.710938 69.578125 234.523438 67.679688 233.671875 66.039062 C 233.464844 65.671875 233.335938 65.28125 233.28125 64.863281 C 233.226562 64.445312 233.25 64.035156 233.355469 63.625 C 233.457031 63.21875 233.632812 62.84375 233.878906 62.5 C 234.125 62.160156 234.425781 61.875 234.78125 61.652344 C 237.882812 59.855469 241.167969 58.515625 244.636719 57.628906 C 253.472656 55.179688 253.015625 63.203125 248.519531 67 C 246.167969 69.015625 243.636719 70.777344 240.925781 72.28125 C 240.558594 72.457031 240.171875 72.566406 239.765625 72.597656 C 239.359375 72.632812 238.960938 72.59375 238.570312 72.480469 C 238.175781 72.367188 237.816406 72.1875 237.492188 71.941406 C 237.167969 71.695312 236.898438 71.398438 236.683594 71.050781 Z M 236.683594 71.050781 " fill-opacity="1" fill-rule="nonzero"/><path fill="#211b18" d="M 248.761719 82.949219 C 247.601562 81.628906 246.15625 79.90625 245.085938 78.40625 C 244.832031 78.070312 244.648438 77.699219 244.539062 77.292969 C 244.425781 76.886719 244.394531 76.476562 244.441406 76.058594 C 244.484375 75.636719 244.605469 75.242188 244.804688 74.871094 C 245 74.5 245.261719 74.175781 245.582031 73.902344 C 248.40625 71.699219 251.476562 69.917969 254.792969 68.554688 C 263.207031 64.917969 263.863281 72.925781 259.933594 77.304688 C 257.882812 79.617188 255.617188 81.699219 253.132812 83.542969 C 252.800781 83.777344 252.433594 83.941406 252.035156 84.035156 C 251.636719 84.132812 251.238281 84.152344 250.832031 84.097656 C 250.429688 84.042969 250.046875 83.914062 249.691406 83.71875 C 249.332031 83.519531 249.023438 83.261719 248.761719 82.949219 Z M 248.761719 82.949219 " fill-opacity="1" fill-rule="nonzero"/><path fill="#211b18" d="M 250.59375 98.371094 C 249.515625 97.367188 248.164062 96.054688 247.140625 94.890625 C 246.902344 94.632812 246.71875 94.335938 246.589844 94.007812 C 246.464844 93.679688 246.402344 93.335938 246.40625 92.984375 C 246.410156 92.632812 246.476562 92.292969 246.609375 91.964844 C 246.742188 91.636719 246.929688 91.34375 247.171875 91.089844 C 249.351562 89.003906 251.773438 87.257812 254.433594 85.839844 C 261.148438 82.089844 262.355469 88.71875 259.472656 92.707031 C 257.953125 94.8125 256.238281 96.742188 254.324219 98.496094 C 254.0625 98.722656 253.765625 98.894531 253.441406 99.011719 C 253.113281 99.128906 252.777344 99.179688 252.433594 99.167969 C 252.085938 99.15625 251.753906 99.082031 251.4375 98.945312 C 251.121094 98.804688 250.835938 98.617188 250.59375 98.371094 Z M 250.59375 98.371094 " fill-opacity="1" fill-rule="nonzero"/><path fill="#211b18" d="M 239.625 124.695312 C 238.664062 123.796875 237.449219 122.613281 236.53125 121.570312 C 236.316406 121.339844 236.152344 121.074219 236.039062 120.777344 C 235.925781 120.484375 235.871094 120.175781 235.875 119.863281 C 235.878906 119.546875 235.9375 119.242188 236.058594 118.949219 C 236.175781 118.65625 236.34375 118.394531 236.5625 118.164062 C 238.507812 116.296875 240.667969 114.726562 243.046875 113.457031 C 249.074219 110.097656 250.167969 116.039062 247.5625 119.617188 C 246.199219 121.507812 244.660156 123.238281 242.941406 124.8125 C 242.707031 125.011719 242.445312 125.160156 242.15625 125.261719 C 241.863281 125.359375 241.566406 125.40625 241.261719 125.394531 C 240.953125 125.382812 240.660156 125.316406 240.378906 125.195312 C 240.097656 125.078125 239.84375 124.910156 239.625 124.695312 Z M 239.625 124.695312 " fill-opacity="1" fill-rule="nonzero"/><path fill="#ffd3b6" d="M 117.117188 120.480469 C 117.117188 120.480469 228.160156 58.304688 238.945312 57.667969 C 249.734375 57.035156 250.976562 65.914062 246.558594 70.992188 C 246.558594 70.992188 254.804688 66.550781 259.246094 72.894531 C 263.691406 79.238281 252.296875 86.855469 252.296875 86.855469 C 252.296875 86.855469 258.640625 84.949219 260.542969 91.292969 C 262.441406 97.636719 244.035156 114.769531 244.035156 114.769531 C 244.035156 114.769531 254.816406 117.3125 244.035156 133.171875 C 233.253906 149.03125 218.988281 181.519531 167.894531 202.335938 C 110.410156 225.753906 93.949219 303.425781 86.984375 302.792969 C 80.019531 302.160156 21.914062 266.238281 22.542969 261.792969 C 23.167969 257.351562 80.316406 176.9375 80.316406 176.9375 Z M 117.117188 120.480469 " fill-opacity="1" fill-rule="nonzero"/><path fill="#211b18" d="M 205.511719 97.871094 C 205.265625 97.871094 205.078125 97.769531 204.945312 97.558594 C 204.839844 97.402344 204.808594 97.234375 204.847656 97.050781 C 204.890625 96.867188 204.988281 96.726562 205.148438 96.628906 L 246.183594 70.4375 C 246.339844 70.332031 246.507812 70.300781 246.691406 70.339844 C 246.875 70.382812 247.015625 70.480469 247.113281 70.644531 C 247.21875 70.800781 247.253906 70.96875 247.210938 71.15625 C 247.171875 71.339844 247.070312 71.480469 246.910156 71.582031 L 205.875 97.765625 C 205.765625 97.835938 205.644531 97.871094 205.511719 97.871094 Z M 205.511719 97.871094 " fill-opacity="1" fill-rule="nonzero"/><path fill="#211b18" d="M 211.625 113.554688 C 211.378906 113.558594 211.191406 113.457031 211.058594 113.246094 C 210.953125 113.089844 210.921875 112.921875 210.960938 112.738281 C 211.003906 112.554688 211.101562 112.414062 211.261719 112.316406 L 252.296875 86.152344 C 252.453125 86.050781 252.625 86.019531 252.804688 86.058594 C 252.988281 86.101562 253.132812 86.199219 253.230469 86.359375 C 253.332031 86.515625 253.363281 86.6875 253.320312 86.867188 C 253.28125 87.050781 253.179688 87.191406 253.023438 87.292969 L 212.023438 113.476562 C 211.898438 113.546875 211.765625 113.574219 211.625 113.554688 Z M 211.625 113.554688 " fill-opacity="1" fill-rule="nonzero"/><path fill="#211b18" d="M 205.816406 145.609375 C 205.597656 145.609375 205.421875 145.527344 205.289062 145.351562 C 205.167969 145.207031 205.121094 145.042969 205.140625 144.859375 C 205.160156 144.671875 205.246094 144.523438 205.394531 144.40625 L 243.496094 114.109375 C 243.640625 113.992188 243.804688 113.941406 243.988281 113.964844 C 244.175781 113.984375 244.324219 114.070312 244.4375 114.214844 C 244.5625 114.359375 244.609375 114.527344 244.589844 114.714844 C 244.570312 114.902344 244.484375 115.054688 244.332031 115.167969 L 206.238281 145.464844 C 206.117188 145.5625 205.976562 145.613281 205.816406 145.609375 Z M 205.816406 145.609375 " fill-opacity="1" fill-rule="nonzero"/><path fill="#211b18" d="M 136.757812 0 L 218.367188 0 C 218.964844 0 219.558594 0.0273438 220.152344 0.0859375 C 220.746094 0.144531 221.335938 0.234375 221.921875 0.351562 C 222.507812 0.464844 223.085938 0.613281 223.65625 0.785156 C 224.230469 0.957031 224.789062 1.160156 225.339844 1.386719 C 225.894531 1.617188 226.433594 1.871094 226.957031 2.152344 C 227.484375 2.433594 227.996094 2.738281 228.492188 3.070312 C 228.988281 3.402344 229.46875 3.757812 229.929688 4.136719 C 230.390625 4.515625 230.832031 4.914062 231.253906 5.335938 C 231.675781 5.757812 232.078125 6.199219 232.457031 6.660156 C 232.835938 7.121094 233.191406 7.601562 233.519531 8.097656 C 233.851562 8.59375 234.160156 9.105469 234.441406 9.632812 C 234.722656 10.15625 234.976562 10.695312 235.207031 11.25 C 235.433594 11.800781 235.636719 12.359375 235.808594 12.933594 C 235.984375 13.503906 236.128906 14.082031 236.246094 14.667969 C 236.359375 15.25 236.449219 15.839844 236.507812 16.4375 C 236.566406 17.03125 236.59375 17.625 236.597656 18.222656 L 236.597656 198.128906 C 236.59375 198.726562 236.566406 199.320312 236.507812 199.914062 C 236.449219 200.507812 236.359375 201.097656 236.246094 201.683594 C 236.128906 202.269531 235.984375 202.847656 235.808594 203.417969 C 235.636719 203.992188 235.433594 204.550781 235.207031 205.101562 C 234.976562 205.65625 234.722656 206.191406 234.441406 206.71875 C 234.160156 207.246094 233.851562 207.757812 233.519531 208.253906 C 233.191406 208.75 232.835938 209.226562 232.457031 209.691406 C 232.078125 210.152344 231.675781 210.59375 231.253906 211.015625 C 230.832031 211.4375 230.390625 211.835938 229.929688 212.214844 C 229.46875 212.59375 228.988281 212.949219 228.492188 213.28125 C 227.996094 213.613281 227.484375 213.917969 226.957031 214.199219 C 226.433594 214.480469 225.894531 214.734375 225.339844 214.964844 C 224.789062 215.191406 224.230469 215.394531 223.65625 215.566406 C 223.085938 215.738281 222.507812 215.882812 221.921875 216 C 221.335938 216.117188 220.746094 216.203125 220.152344 216.261719 C 219.558594 216.320312 218.964844 216.351562 218.367188 216.351562 L 136.757812 216.351562 C 136.160156 216.351562 135.566406 216.320312 134.972656 216.261719 C 134.378906 216.203125 133.789062 216.117188 133.203125 216 C 132.617188 215.882812 132.039062 215.738281 131.46875 215.566406 C 130.898438 215.394531 130.335938 215.191406 129.785156 214.964844 C 129.234375 214.734375 128.695312 214.480469 128.167969 214.199219 C 127.640625 213.917969 127.128906 213.613281 126.632812 213.28125 C 126.136719 212.949219 125.660156 212.59375 125.195312 212.214844 C 124.734375 211.835938 124.292969 211.4375 123.871094 211.015625 C 123.449219 210.59375 123.050781 210.152344 122.671875 209.691406 C 122.292969 209.226562 121.9375 208.75 121.605469 208.253906 C 121.273438 207.757812 120.964844 207.246094 120.683594 206.71875 C 120.402344 206.191406 120.148438 205.65625 119.917969 205.101562 C 119.691406 204.550781 119.488281 203.992188 119.316406 203.417969 C 119.144531 202.847656 119 202.269531 118.882812 201.683594 C 118.765625 201.097656 118.675781 200.507812 118.617188 199.914062 C 118.558594 199.320312 118.53125 198.726562 118.53125 198.128906 L 118.53125 18.222656 C 118.53125 17.625 118.558594 17.03125 118.617188 16.4375 C 118.675781 15.839844 118.765625 15.25 118.882812 14.667969 C 119 14.082031 119.144531 13.503906 119.316406 12.933594 C 119.488281 12.359375 119.691406 11.800781 119.917969 11.25 C 120.148438 10.695312 120.402344 10.15625 120.683594 9.632812 C 120.964844 9.105469 121.273438 8.59375 121.605469 8.097656 C 121.9375 7.601562 122.292969 7.121094 122.671875 6.660156 C 123.050781 6.199219 123.449219 5.757812 123.871094 5.335938 C 124.292969 4.914062 124.734375 4.515625 125.195312 4.136719 C 125.660156 3.757812 126.136719 3.402344 126.632812 3.070312 C 127.128906 2.738281 127.640625 2.433594 128.167969 2.152344 C 128.695312 1.871094 129.234375 1.617188 129.785156 1.386719 C 130.335938 1.160156 130.898438 0.957031 131.46875 0.785156 C 132.039062 0.613281 132.617188 0.464844 133.203125 0.351562 C 133.789062 0.234375 134.378906 0.144531 134.972656 0.0859375 C 135.566406 0.0273438 136.160156 0 136.757812 0 Z M 136.757812 0 " fill-opacity="1" fill-rule="nonzero"/><path fill="#ffffff" d="M 135.484375 8.839844 L 219.90625 8.839844 C 220.566406 8.839844 221.21875 8.90625 221.867188 9.035156 C 222.511719 9.160156 223.140625 9.351562 223.75 9.605469 C 224.359375 9.859375 224.941406 10.167969 225.488281 10.535156 C 226.035156 10.898438 226.542969 11.316406 227.011719 11.785156 C 227.476562 12.25 227.894531 12.757812 228.261719 13.304688 C 228.628906 13.855469 228.9375 14.433594 229.1875 15.042969 C 229.441406 15.652344 229.632812 16.28125 229.761719 16.929688 C 229.890625 17.574219 229.953125 18.230469 229.953125 18.886719 L 229.953125 198.375 C 229.953125 199.035156 229.890625 199.6875 229.761719 200.335938 C 229.632812 200.980469 229.441406 201.609375 229.1875 202.21875 C 228.9375 202.828125 228.628906 203.40625 228.261719 203.957031 C 227.894531 204.503906 227.476562 205.011719 227.011719 205.480469 C 226.542969 205.945312 226.035156 206.363281 225.488281 206.730469 C 224.941406 207.09375 224.359375 207.40625 223.75 207.65625 C 223.140625 207.910156 222.511719 208.101562 221.867188 208.230469 C 221.21875 208.359375 220.566406 208.421875 219.90625 208.421875 L 135.484375 208.421875 C 134.824219 208.421875 134.171875 208.359375 133.523438 208.230469 C 132.878906 208.101562 132.25 207.910156 131.640625 207.65625 C 131.03125 207.40625 130.449219 207.09375 129.902344 206.730469 C 129.351562 206.363281 128.847656 205.945312 128.378906 205.480469 C 127.914062 205.011719 127.496094 204.503906 127.128906 203.957031 C 126.761719 203.40625 126.453125 202.828125 126.199219 202.21875 C 125.949219 201.609375 125.757812 200.980469 125.628906 200.335938 C 125.5 199.6875 125.4375 199.035156 125.4375 198.375 L 125.4375 18.886719 C 125.4375 18.230469 125.5 17.574219 125.628906 16.929688 C 125.757812 16.28125 125.949219 15.652344 126.199219 15.042969 C 126.453125 14.433594 126.761719 13.855469 127.128906 13.304688 C 127.496094 12.757812 127.914062 12.25 128.378906 11.785156 C 128.847656 11.316406 129.351562 10.898438 129.902344 10.535156 C 130.449219 10.167969 131.03125 9.859375 131.640625 9.605469 C 132.25 9.351562 132.878906 9.160156 133.523438 9.035156 C 134.171875 8.90625 134.824219 8.839844 135.484375 8.839844 Z M 135.484375 8.839844 " fill-opacity="1" fill-rule="nonzero"/><path fill="#d17f47" d="M 185.199219 150.746094 C 185.214844 151.261719 185.132812 151.761719 184.953125 152.246094 C 184.777344 152.730469 184.511719 153.160156 184.164062 153.542969 C 183.816406 153.921875 183.410156 154.226562 182.945312 154.445312 C 182.480469 154.667969 181.988281 154.796875 181.476562 154.824219 L 178.046875 154.886719 L 173.472656 154.886719 L 171.664062 154.917969 L 170.78125 154.917969 L 142.390625 155.414062 L 141.308594 155.414062 L 139.234375 155.445312 L 128.128906 155.644531 L 125.4375 155.691406 L 125.4375 33.980469 L 137.867188 33.769531 L 180.78125 33.03125 C 181.039062 33.035156 181.289062 33.0625 181.539062 33.117188 C 181.789062 33.171875 182.03125 33.25 182.265625 33.351562 C 182.5 33.453125 182.722656 33.574219 182.933594 33.722656 C 183.144531 33.867188 183.335938 34.03125 183.515625 34.214844 C 183.691406 34.402344 183.847656 34.601562 183.988281 34.816406 C 184.125 35.03125 184.238281 35.257812 184.332031 35.496094 C 184.425781 35.734375 184.496094 35.980469 184.539062 36.230469 C 184.582031 36.480469 184.601562 36.734375 184.597656 36.992188 L 184.597656 108.789062 L 184.691406 117.1875 L 184.691406 117.886719 L 184.757812 123.71875 L 184.953125 130.0625 L 185.039062 138.289062 L 185.121094 144.730469 L 185.121094 147.476562 Z M 185.199219 150.746094 " fill-opacity="1" fill-rule="nonzero"/><path fill="#ffffff" d="M 178.476562 75.480469 C 178.476562 76.035156 178.476562 76.589844 178.429688 77.140625 C 178.429688 77.429688 178.398438 77.714844 178.378906 78.003906 C 178.332031 78.585938 178.273438 79.160156 178.195312 79.726562 C 178.113281 80.292969 178.015625 80.949219 177.894531 81.550781 C 177.804688 82.03125 177.699219 82.511719 177.585938 82.988281 C 177.511719 83.300781 177.425781 83.609375 177.34375 83.917969 C 177.34375 84.011719 177.296875 84.109375 177.269531 84.203125 C 177.039062 85.015625 176.773438 85.800781 176.484375 86.582031 C 176.429688 86.738281 176.371094 86.898438 176.3125 87.050781 C 175.855469 88.210938 175.332031 89.339844 174.746094 90.441406 C 173.914062 92.015625 172.953125 93.511719 171.867188 94.925781 C 171.375 95.585938 170.859375 96.1875 170.316406 96.785156 C 169.378906 97.828125 168.375 98.804688 167.3125 99.71875 C 166.585938 100.339844 165.835938 100.925781 165.0625 101.480469 C 164.289062 102.035156 163.4375 102.585938 162.507812 103.132812 C 161.734375 103.574219 160.949219 103.984375 160.148438 104.367188 C 159.488281 104.683594 158.769531 104.980469 158.0625 105.257812 C 154.363281 106.679688 150.53125 107.390625 146.570312 107.382812 C 143.898438 107.386719 141.273438 107.054688 138.6875 106.386719 C 138.152344 106.253906 137.628906 106.109375 137.113281 105.945312 C 136.804688 105.84375 136.5 105.753906 136.191406 105.640625 C 133.355469 104.679688 130.714844 103.335938 128.269531 101.605469 C 127.800781 101.277344 127.335938 100.945312 126.882812 100.570312 C 126.425781 100.195312 125.898438 99.785156 125.429688 99.363281 L 125.429688 51.589844 C 126.222656 50.886719 127.050781 50.222656 127.914062 49.601562 C 128.773438 48.980469 129.664062 48.402344 130.582031 47.871094 C 131.5 47.339844 132.445312 46.855469 133.410156 46.417969 C 134.378906 45.976562 135.363281 45.589844 136.371094 45.25 C 137.375 44.910156 138.394531 44.621094 139.429688 44.382812 C 140.464844 44.144531 141.507812 43.960938 142.5625 43.828125 C 143.617188 43.695312 144.671875 43.613281 145.734375 43.585938 C 146.796875 43.558594 147.855469 43.582031 148.914062 43.660156 C 149.972656 43.738281 151.023438 43.867188 152.070312 44.050781 C 153.117188 44.234375 154.148438 44.46875 155.171875 44.753906 C 156.195312 45.042969 157.199219 45.378906 158.1875 45.765625 C 159.175781 46.152344 160.144531 46.585938 161.089844 47.070312 C 162.035156 47.554688 162.953125 48.082031 163.847656 48.65625 C 164.738281 49.230469 165.601562 49.851562 166.429688 50.511719 C 167.261719 51.171875 168.058594 51.871094 168.816406 52.613281 C 169.578125 53.355469 170.300781 54.128906 170.984375 54.941406 C 171.988281 56.128906 172.90625 57.382812 173.730469 58.699219 C 174.96875 60.699219 175.972656 62.808594 176.742188 65.03125 C 176.832031 65.28125 176.917969 65.546875 177 65.804688 C 177.992188 68.953125 178.484375 72.179688 178.476562 75.480469 Z M 178.476562 75.480469 " fill-opacity="1" fill-rule="nonzero"/><path fill="#211b18" d="M 137.113281 105.945312 C 136.804688 105.84375 136.5 105.753906 136.191406 105.640625 C 133.355469 104.679688 130.714844 103.335938 128.269531 101.605469 C 127.800781 101.277344 127.335938 100.945312 126.882812 100.570312 C 126.425781 100.195312 125.898438 99.785156 125.429688 99.363281 L 125.429688 94.996094 C 126.300781 94.140625 127.300781 93.480469 128.433594 93.015625 C 129.109375 92.742188 129.816406 92.597656 130.546875 92.574219 C 136.261719 92.429688 137.542969 98.839844 137.113281 105.945312 Z M 137.113281 105.945312 " fill-opacity="1" fill-rule="nonzero"/><path fill="#211b18" d="M 171.863281 94.925781 C 170.515625 96.683594 169 98.277344 167.3125 99.710938 C 166.585938 100.335938 165.835938 100.925781 165.054688 101.480469 C 163.507812 102.589844 161.871094 103.550781 160.148438 104.367188 C 159.488281 104.691406 158.769531 104.988281 158.0625 105.257812 C 156.320312 97.519531 156.320312 89.695312 162.546875 89.074219 C 162.769531 89.074219 162.988281 89.074219 163.207031 89.074219 C 166.296875 89.089844 169.261719 91.542969 171.863281 94.925781 Z M 171.863281 94.925781 " fill-opacity="1" fill-rule="nonzero"/><path fill="#211b18" d="M 165.054688 101.480469 C 163.507812 102.589844 161.871094 103.550781 160.148438 104.367188 C 159.488281 104.691406 158.769531 104.988281 158.0625 105.257812 C 154.707031 106.542969 151.234375 107.238281 147.644531 107.351562 C 144.054688 107.464844 140.542969 106.988281 137.113281 105.917969 L 136.191406 105.613281 C 133.355469 104.652344 130.714844 103.308594 128.269531 101.582031 C 128.269531 96.570312 128.269531 93.15625 128.414062 92.996094 C 129.324219 92.226562 140.679688 88.25 141.617188 87.925781 C 141.640625 87.933594 141.667969 87.933594 141.691406 87.925781 C 141.691406 87.925781 142.679688 90.652344 146.3125 90.527344 C 150.273438 90.382812 151.203125 87.953125 151.335938 87.519531 C 151.335938 87.5 151.335938 87.480469 151.335938 87.464844 C 151.335938 87.464844 162.203125 88.816406 163.09375 89.050781 C 163.09375 89.050781 163.128906 89.050781 163.152344 89.109375 C 163.523438 89.617188 164.25 94.695312 165.054688 101.480469 Z M 165.054688 101.480469 " fill-opacity="1" fill-rule="nonzero"/><path fill="#211b18" d="M 150.089844 85.742188 C 152.636719 84.796875 154.753906 83.257812 156.433594 81.121094 C 159.421875 77.488281 161.957031 73.5625 160.058594 68.859375 C 160.058594 68.859375 163.140625 59.253906 155.886719 56.375 C 155.886719 56.375 153.480469 51.582031 148.140625 50.960938 C 142.800781 50.339844 136.757812 55.34375 135.734375 55.972656 C 134.710938 56.601562 129.972656 60.03125 131.535156 67.109375 C 131.074219 68.527344 130.898438 69.976562 131.003906 71.460938 C 131.109375 72.945312 131.488281 74.355469 132.144531 75.691406 C 135.570312 82.976562 140.71875 85.167969 142.59375 85.828125 C 143.804688 86.28125 145.058594 86.503906 146.351562 86.488281 C 147.640625 86.472656 148.890625 86.222656 150.089844 85.742188 Z M 150.089844 85.742188 " fill-opacity="1" fill-rule="nonzero"/><path fill="#ffd3b6" d="M 141.570312 81.542969 C 141.570312 81.542969 141.570312 85.992188 141.453125 88.050781 C 141.453125 88.050781 147.234375 96.316406 151.621094 87.390625 C 151.367188 84.355469 151.328125 81.316406 151.5 78.273438 C 151.851562 74.808594 141.570312 81.542969 141.570312 81.542969 Z M 141.570312 81.542969 " fill-opacity="1" fill-rule="nonzero"/><path fill="#211b18" d="M 151.585938 86.984375 C 151.519531 86.105469 151.390625 83.992188 151.375 81.820312 C 151.375 81.363281 151.375 80.902344 151.375 80.433594 L 141.609375 83.734375 C 141.609375 83.734375 144.679688 87.5625 151.585938 86.984375 Z M 151.585938 86.984375 " fill-opacity="1" fill-rule="nonzero"/><path fill="#ffd3b6" d="M 154.585938 64.1875 C 154.585938 64.1875 157.953125 78.585938 151.652344 83.035156 C 144.660156 87.980469 137.542969 82.167969 136.671875 77.824219 C 136.671875 77.824219 133.769531 78.761719 132.769531 76.070312 C 131.773438 73.375 132.023438 69.796875 136.03125 72.199219 C 136.03125 72.199219 133.878906 63.71875 137.753906 61.484375 C 141.632812 59.253906 152.945312 58.289062 154.585938 64.1875 Z M 154.585938 64.1875 " fill-opacity="1" fill-rule="nonzero"/><path fill="#ffd3b6" d="M 154.472656 72.074219 C 154.472656 72.074219 156.566406 70.179688 158.050781 70.878906 C 159.898438 71.75 158.710938 78.804688 154.140625 77.066406 C 150.425781 75.652344 154.472656 72.074219 154.472656 72.074219 Z M 154.472656 72.074219 " fill-opacity="1" fill-rule="nonzero"/><path fill="#211b18" d="M 143.453125 71.765625 C 143.53125 72.664062 143.101562 73.429688 142.507812 73.476562 C 141.914062 73.519531 141.367188 72.816406 141.292969 71.941406 C 141.222656 71.070312 141.644531 70.28125 142.246094 70.234375 C 142.847656 70.1875 143.359375 70.867188 143.453125 71.765625 Z M 143.453125 71.765625 " fill-opacity="1" fill-rule="nonzero"/><path fill="#211b18" d="M 142.734375 66.746094 C 141.691406 66.917969 139.195312 67.125 137.5625 69.625 C 137.5625 69.625 140.632812 68.140625 142.800781 68 C 142.882812 68 142.957031 67.96875 143.015625 67.910156 C 143.074219 67.847656 143.101562 67.777344 143.101562 67.691406 L 143.101562 67.03125 C 143.09375 66.9375 143.054688 66.863281 142.980469 66.808594 C 142.90625 66.75 142.824219 66.730469 142.734375 66.746094 Z M 142.734375 66.746094 " fill-opacity="1" fill-rule="nonzero"/><path fill="#211b18" d="M 148.535156 71.765625 C 148.464844 72.664062 148.886719 73.429688 149.488281 73.476562 C 150.089844 73.519531 150.625 72.816406 150.703125 71.941406 C 150.78125 71.070312 150.347656 70.28125 149.75 70.234375 C 149.15625 70.1875 148.640625 70.867188 148.535156 71.765625 Z M 148.535156 71.765625 " fill-opacity="1" fill-rule="nonzero"/><path fill="#211b18" d="M 149.257812 66.746094 C 150.300781 66.917969 152.800781 67.125 154.425781 69.625 C 154.425781 69.625 151.355469 68.140625 149.191406 68 C 149.105469 68 149.035156 67.964844 148.980469 67.90625 C 148.921875 67.847656 148.894531 67.773438 148.894531 67.691406 L 148.894531 67.03125 C 148.898438 66.9375 148.9375 66.863281 149.011719 66.808594 C 149.085938 66.75 149.164062 66.730469 149.257812 66.746094 Z M 149.257812 66.746094 " fill-opacity="1" fill-rule="nonzero"/><path fill="#211b18" d="M 146 73.390625 C 146.3125 73.859375 146.667969 74.300781 147.058594 74.710938 C 147.71875 75.183594 146.9375 75.839844 146.523438 76.128906 C 146.460938 76.167969 146.410156 76.214844 146.371094 76.28125 C 146.371094 76.199219 146.390625 76.125 146.4375 76.054688 C 146.640625 75.785156 146.804688 75.496094 146.9375 75.183594 C 146.9375 75.097656 146.867188 75.066406 146.808594 75.011719 C 146.34375 74.570312 146.074219 74.03125 146 73.394531 Z M 146 73.390625 " fill-opacity="1" fill-rule="nonzero"/><path fill="#211b18" d="M 143.683594 77.972656 C 144.507812 78.144531 146.820312 78.480469 148.742188 77.371094 C 148.804688 77.328125 148.871094 77.328125 148.9375 77.367188 C 149.003906 77.40625 149.03125 77.464844 149.027344 77.542969 C 148.964844 78.40625 148.578125 80.507812 146.148438 80.367188 C 145.519531 80.324219 144.960938 80.105469 144.472656 79.714844 C 143.980469 79.320312 143.644531 78.824219 143.464844 78.222656 C 143.441406 78.152344 143.453125 78.089844 143.503906 78.035156 C 143.550781 77.976562 143.613281 77.957031 143.683594 77.972656 Z M 143.683594 77.972656 " fill-opacity="1" fill-rule="nonzero"/><path fill="#ffffff" d="M 143.941406 78.023438 C 144.03125 78.34375 144.226562 78.5625 144.535156 78.683594 C 145.632812 79.105469 147.75 78.644531 148.179688 78.550781 C 148.457031 78.492188 148.558594 77.851562 148.597656 77.417969 C 147.113281 78.128906 145.558594 78.332031 143.941406 78.023438 Z M 143.941406 78.023438 " fill-opacity="1" fill-rule="nonzero"/><path fill="#211b18" d="M 154.203125 56.480469 C 154.730469 56.804688 158.507812 58 157.503906 63.558594 C 156.683594 68.015625 146.828125 64.101562 145.269531 62.898438 C 145.269531 62.898438 134.085938 69.691406 132.347656 63.824219 C 129.925781 55.636719 145.84375 53.792969 145.84375 53.792969 Z M 154.203125 56.480469 " fill-opacity="1" fill-rule="nonzero"/><path fill="#ffffff" d="M 170.792969 122.210938 L 163.324219 116.117188 C 163.136719 115.992188 162.933594 115.925781 162.707031 115.917969 C 162.480469 115.914062 162.273438 115.964844 162.078125 116.078125 C 161.882812 116.191406 161.730469 116.347656 161.625 116.546875 C 161.519531 116.746094 161.476562 116.957031 161.488281 117.179688 L 161.488281 119.578125 L 155.046875 119.578125 C 154.796875 119.578125 154.558594 119.625 154.332031 119.71875 C 154.101562 119.816406 153.902344 119.949219 153.726562 120.125 C 153.550781 120.300781 153.414062 120.5 153.320312 120.730469 C 153.226562 120.960938 153.179688 121.199219 153.179688 121.445312 L 153.179688 125.214844 C 153.175781 125.464844 153.222656 125.703125 153.320312 125.933594 C 153.414062 126.164062 153.546875 126.363281 153.722656 126.542969 C 153.898438 126.71875 154.101562 126.851562 154.328125 126.949219 C 154.558594 127.042969 154.796875 127.089844 155.046875 127.089844 L 161.488281 127.089844 L 161.488281 129.480469 C 161.472656 129.707031 161.519531 129.921875 161.625 130.121094 C 161.734375 130.320312 161.886719 130.476562 162.082031 130.589844 C 162.28125 130.703125 162.492188 130.753906 162.71875 130.742188 C 162.945312 130.734375 163.152344 130.664062 163.339844 130.535156 L 170.800781 124.324219 C 170.964844 124.199219 171.09375 124.042969 171.1875 123.855469 C 171.277344 123.671875 171.324219 123.472656 171.324219 123.265625 C 171.324219 123.058594 171.277344 122.863281 171.183594 122.675781 C 171.089844 122.492188 170.960938 122.335938 170.792969 122.210938 Z M 170.792969 122.210938 " fill-opacity="1" fill-rule="nonzero"/><path fill="#ffffff" d="M 139.484375 121.480469 L 139.484375 125.253906 C 139.484375 125.503906 139.4375 125.742188 139.34375 125.96875 C 139.25 126.199219 139.113281 126.398438 138.9375 126.574219 C 138.761719 126.75 138.558594 126.882812 138.332031 126.976562 C 138.101562 127.070312 137.863281 127.117188 137.617188 127.117188 L 131.171875 127.117188 L 131.171875 129.511719 C 131.1875 129.738281 131.144531 129.953125 131.035156 130.152344 C 130.929688 130.351562 130.777344 130.511719 130.582031 130.621094 C 130.382812 130.734375 130.171875 130.785156 129.945312 130.777344 C 129.71875 130.765625 129.511719 130.699219 129.324219 130.570312 L 125.4375 127.335938 L 125.4375 119.300781 L 129.339844 116.125 C 129.523438 115.996094 129.730469 115.929688 129.957031 115.921875 C 130.179688 115.910156 130.390625 115.964844 130.585938 116.074219 C 130.78125 116.1875 130.933594 116.34375 131.039062 116.542969 C 131.144531 116.742188 131.191406 116.957031 131.171875 117.179688 L 131.171875 119.578125 L 137.617188 119.578125 C 137.863281 119.578125 138.101562 119.625 138.332031 119.71875 C 138.5625 119.816406 138.761719 119.949219 138.9375 120.125 C 139.113281 120.300781 139.25 120.503906 139.34375 120.730469 C 139.4375 120.960938 139.484375 121.199219 139.484375 121.445312 Z M 139.484375 121.480469 " fill-opacity="1" fill-rule="nonzero"/><path fill="#1b75bc" d="M 225.503906 157.71875 C 225.519531 158.007812 225.503906 158.296875 225.460938 158.582031 C 225.417969 158.867188 225.347656 159.148438 225.25 159.421875 C 225.152344 159.691406 225.027344 159.953125 224.878906 160.203125 C 224.730469 160.449219 224.558594 160.679688 224.363281 160.894531 C 224.167969 161.109375 223.957031 161.304688 223.722656 161.476562 C 223.492188 161.648438 223.242188 161.796875 222.980469 161.921875 C 222.71875 162.042969 222.449219 162.140625 222.167969 162.210938 C 221.886719 162.28125 221.601562 162.324219 221.3125 162.339844 L 217.457031 162.40625 L 214.207031 162.40625 L 212.308594 162.4375 L 209.277344 162.4375 L 177.320312 162.992188 L 176.101562 162.992188 L 161.265625 163.25 L 154.820312 163.363281 L 153.988281 163.363281 L 151.777344 163.402344 L 149.453125 163.441406 L 148.734375 163.441406 L 143.585938 163.527344 C 143.296875 163.523438 143.011719 163.492188 142.730469 163.429688 C 142.449219 163.371094 142.179688 163.28125 141.914062 163.167969 C 141.648438 163.054688 141.398438 162.914062 141.164062 162.75 C 140.925781 162.585938 140.707031 162.402344 140.507812 162.195312 C 140.308594 161.988281 140.132812 161.761719 139.976562 161.519531 C 139.820312 161.277344 139.691406 161.023438 139.585938 160.753906 C 139.480469 160.488281 139.402344 160.210938 139.355469 159.925781 C 139.304688 159.644531 139.28125 159.359375 139.289062 159.070312 L 139.222656 153.367188 L 139.183594 149.835938 L 139.035156 136.894531 L 138.96875 131.027344 L 138.96875 129.042969 L 138.882812 121.386719 L 138.738281 112.042969 L 138.277344 70.449219 L 137.835938 31.175781 C 137.820312 30.886719 137.835938 30.597656 137.878906 30.3125 C 137.921875 30.027344 137.992188 29.746094 138.089844 29.472656 C 138.1875 29.203125 138.3125 28.941406 138.460938 28.691406 C 138.609375 28.445312 138.78125 28.214844 138.976562 28 C 139.171875 27.785156 139.386719 27.589844 139.617188 27.417969 C 139.851562 27.246094 140.097656 27.097656 140.359375 26.972656 C 140.621094 26.851562 140.890625 26.753906 141.171875 26.683594 C 141.453125 26.609375 141.738281 26.570312 142.027344 26.554688 L 220.59375 25.234375 C 220.878906 25.238281 221.164062 25.269531 221.445312 25.332031 C 221.726562 25.390625 222 25.476562 222.261719 25.59375 C 222.527344 25.707031 222.777344 25.84375 223.011719 26.007812 C 223.25 26.171875 223.464844 26.359375 223.667969 26.566406 C 223.867188 26.773438 224.042969 26.996094 224.199219 27.238281 C 224.355469 27.480469 224.484375 27.734375 224.589844 28 C 224.695312 28.269531 224.773438 28.542969 224.824219 28.828125 C 224.875 29.109375 224.894531 29.394531 224.890625 29.683594 L 224.976562 108.359375 L 225.101562 119.980469 L 225.101562 120.765625 L 225.179688 127.367188 L 225.261719 134.453125 L 225.359375 143.695312 L 225.445312 150.957031 L 225.476562 154.046875 Z M 225.503906 157.71875 " fill-opacity="1" fill-rule="nonzero"/><path fill="#ffffff" d="M 217.964844 72.992188 C 217.96875 75.929688 217.617188 78.820312 216.90625 81.671875 C 216.195312 84.519531 215.148438 87.238281 213.765625 89.828125 C 212.828125 91.605469 211.746094 93.289062 210.515625 94.878906 C 208.996094 96.859375 207.289062 98.65625 205.386719 100.273438 C 204.574219 100.972656 203.730469 101.632812 202.859375 102.253906 C 201.113281 103.5 199.265625 104.582031 197.328125 105.5 C 196.5625 105.863281 195.78125 106.195312 194.984375 106.503906 C 190.816406 108.121094 186.5 108.929688 182.03125 108.933594 C 178.394531 108.9375 174.847656 108.398438 171.378906 107.3125 C 171.03125 107.207031 170.6875 107.09375 170.34375 106.972656 C 167.152344 105.886719 164.183594 104.375 161.429688 102.433594 C 160.902344 102.054688 160.382812 101.664062 159.871094 101.261719 C 157.160156 99.15625 154.8125 96.703125 152.828125 93.902344 C 152.417969 93.328125 152.027344 92.746094 151.652344 92.148438 C 151.28125 91.554688 150.921875 90.949219 150.585938 90.332031 C 150.246094 89.714844 149.925781 89.089844 149.625 88.453125 C 149.320312 87.816406 149.039062 87.175781 148.773438 86.523438 C 148.511719 85.871094 148.265625 85.210938 148.039062 84.546875 C 147.8125 83.878906 147.609375 83.207031 147.421875 82.527344 C 147.238281 81.847656 147.070312 81.167969 146.925781 80.476562 C 146.78125 79.789062 146.65625 79.097656 146.550781 78.402344 C 146.445312 77.707031 146.359375 77.007812 146.296875 76.308594 C 146.230469 75.609375 146.1875 74.90625 146.164062 74.203125 C 146.144531 73.5 146.140625 72.796875 146.160156 72.09375 C 146.179688 71.390625 146.21875 70.6875 146.277344 69.988281 C 146.335938 69.285156 146.417969 68.585938 146.519531 67.890625 C 146.617188 67.195312 146.738281 66.503906 146.882812 65.8125 C 147.023438 65.125 147.183594 64.441406 147.367188 63.761719 C 147.546875 63.082031 147.75 62.40625 147.972656 61.738281 C 148.191406 61.070312 148.433594 60.410156 148.695312 59.757812 C 148.953125 59.105469 149.234375 58.460938 149.53125 57.820312 C 149.828125 57.183594 150.144531 56.558594 150.480469 55.9375 C 150.816406 55.320312 151.167969 54.710938 151.539062 54.113281 C 151.910156 53.515625 152.296875 52.929688 152.703125 52.355469 C 153.109375 51.78125 153.53125 51.21875 153.96875 50.667969 C 154.40625 50.117188 154.863281 49.578125 155.332031 49.054688 C 155.800781 48.53125 156.285156 48.023438 156.785156 47.527344 C 157.285156 47.035156 157.800781 46.554688 158.328125 46.089844 C 158.855469 45.625 159.398438 45.175781 159.949219 44.742188 C 160.503906 44.308594 161.070312 43.890625 161.652344 43.492188 C 162.230469 43.09375 162.820312 42.710938 163.421875 42.34375 C 164.023438 41.980469 164.632812 41.632812 165.253906 41.304688 C 165.878906 40.976562 166.507812 40.664062 167.148438 40.371094 C 167.789062 40.082031 168.4375 39.808594 169.09375 39.554688 C 169.746094 39.300781 170.410156 39.066406 171.082031 38.851562 C 171.75 38.636719 172.425781 38.441406 173.105469 38.265625 C 173.789062 38.089844 174.472656 37.933594 175.164062 37.800781 C 175.855469 37.664062 176.546875 37.550781 177.246094 37.457031 C 177.941406 37.359375 178.640625 37.289062 179.34375 37.234375 C 180.046875 37.179688 180.746094 37.148438 181.449219 37.136719 C 182.152344 37.125 182.855469 37.132812 183.558594 37.164062 C 184.261719 37.191406 184.964844 37.242188 185.664062 37.3125 C 186.363281 37.382812 187.0625 37.476562 187.757812 37.585938 C 188.449219 37.699219 189.140625 37.832031 189.828125 37.984375 C 190.515625 38.136719 191.195312 38.308594 191.871094 38.5 C 192.550781 38.691406 193.21875 38.902344 193.882812 39.136719 C 194.546875 39.367188 195.207031 39.617188 195.855469 39.890625 C 196.503906 40.160156 197.144531 40.449219 197.777344 40.757812 C 198.410156 41.0625 199.03125 41.390625 199.644531 41.734375 C 200.257812 42.078125 200.863281 42.441406 201.453125 42.820312 C 202.046875 43.203125 202.625 43.597656 203.195312 44.011719 C 203.761719 44.425781 204.320312 44.859375 204.863281 45.304688 C 205.40625 45.75 205.9375 46.214844 206.453125 46.691406 C 206.96875 47.167969 207.46875 47.660156 207.957031 48.167969 C 208.445312 48.675781 208.917969 49.199219 209.371094 49.734375 C 209.828125 50.269531 210.269531 50.816406 210.695312 51.378906 C 211.117188 51.9375 211.527344 52.511719 211.917969 53.097656 C 212.308594 53.679688 212.679688 54.277344 213.035156 54.882812 C 213.390625 55.492188 213.730469 56.109375 214.050781 56.734375 C 214.367188 57.363281 214.667969 57.996094 214.953125 58.640625 C 215.234375 59.285156 215.496094 59.9375 215.738281 60.597656 C 215.984375 61.257812 216.207031 61.925781 216.414062 62.597656 C 216.617188 63.269531 216.800781 63.949219 216.964844 64.632812 C 217.132812 65.316406 217.277344 66.003906 217.398438 66.695312 C 217.523438 67.390625 217.628906 68.085938 217.710938 68.785156 C 217.792969 69.480469 217.859375 70.183594 217.898438 70.882812 C 217.941406 71.585938 217.964844 72.289062 217.964844 72.992188 Z M 217.964844 72.992188 " fill-opacity="1" fill-rule="nonzero"/><path fill="#211b18" d="M 172.113281 80.164062 C 172.113281 80.164062 166.949219 75.542969 166.496094 61.503906 C 166.242188 53.753906 182.808594 49.257812 188.578125 53.582031 C 194.050781 57.65625 193.667969 73.585938 189.484375 79.160156 C 185.296875 84.730469 172.113281 80.164062 172.113281 80.164062 Z M 172.113281 80.164062 " fill-opacity="1" fill-rule="nonzero"/><path fill="#ffd3b6" d="M 176.226562 81.113281 C 176.226562 81.113281 176.511719 85.933594 176.523438 88.179688 C 176.523438 88.179688 187.015625 95.808594 187.484375 86.816406 C 187.015625 83.546875 186.777344 80.257812 186.769531 76.953125 C 186.933594 73.171875 176.226562 81.113281 176.226562 81.113281 Z M 176.226562 81.113281 " fill-opacity="1" fill-rule="nonzero"/><path fill="#211b18" d="M 187.421875 86.363281 C 187.296875 85.417969 187.015625 83.140625 186.863281 80.789062 C 186.816406 80.292969 186.78125 79.792969 186.769531 79.292969 L 176.410156 83.457031 C 176.410156 83.457031 179.988281 87.4375 187.421875 86.363281 Z M 187.421875 86.363281 " fill-opacity="1" fill-rule="nonzero"/><path fill="#211b18" d="M 202.839844 102.261719 C 201.089844 103.507812 199.246094 104.589844 197.308594 105.507812 C 196.539062 105.871094 195.761719 106.203125 194.964844 106.511719 C 190.800781 108.125 186.492188 108.929688 182.03125 108.933594 C 178.394531 108.9375 174.847656 108.398438 171.378906 107.3125 C 171.03125 107.207031 170.6875 107.09375 170.34375 106.972656 C 167.152344 105.886719 164.183594 104.375 161.429688 102.433594 C 161.429688 96.785156 161.429688 92.945312 161.589844 92.753906 C 162.613281 91.882812 175.394531 87.410156 176.445312 87.050781 C 176.472656 87.042969 176.496094 87.03125 176.515625 87.015625 C 176.515625 87.015625 177.632812 90.078125 181.71875 89.941406 C 186.164062 89.777344 187.226562 87.050781 187.378906 86.554688 L 187.378906 86.5 C 187.378906 86.5 199.609375 88.019531 200.582031 88.285156 C 200.582031 88.285156 200.621094 88.285156 200.640625 88.347656 C 201.109375 88.902344 201.929688 94.621094 202.839844 102.261719 Z M 202.839844 102.261719 " fill-opacity="1" fill-rule="nonzero"/><path fill="#ffd3b6" d="M 189.191406 61.492188 C 189.191406 61.492188 193.769531 76.863281 187.210938 82.089844 C 179.949219 87.886719 171.875 82.089844 170.652344 77.410156 C 170.652344 77.410156 167.570312 78.613281 166.316406 75.757812 C 165.0625 72.90625 165.101562 69.011719 169.617188 71.355469 C 169.617188 71.355469 167.347656 62.503906 171.398438 59.835938 C 175.453125 57.167969 187.054688 55.207031 189.191406 61.492188 Z M 189.191406 61.492188 " fill-opacity="1" fill-rule="nonzero"/><path fill="#ffd3b6" d="M 189.574219 70.035156 C 189.574219 70.035156 191.726562 67.851562 193.378906 68.511719 C 195.433594 69.335938 194.59375 77.054688 189.550781 75.460938 C 185.4375 74.167969 189.574219 70.035156 189.574219 70.035156 Z M 189.574219 70.035156 " fill-opacity="1" fill-rule="nonzero"/><path fill="#211b18" d="M 177.640625 70.410156 C 177.777344 71.375 177.367188 72.234375 176.722656 72.324219 C 176.074219 72.417969 175.445312 71.707031 175.308594 70.742188 C 175.167969 69.777344 175.585938 68.917969 176.226562 68.828125 C 176.867188 68.734375 177.5 69.441406 177.640625 70.410156 Z M 177.640625 70.410156 " fill-opacity="1" fill-rule="nonzero"/><path fill="#211b18" d="M 176.535156 65.019531 C 175.421875 65.273438 172.726562 65.679688 171.121094 68.46875 C 171.121094 68.46875 174.351562 66.660156 176.6875 66.378906 C 176.777344 66.367188 176.851562 66.328125 176.914062 66.261719 C 176.972656 66.191406 176.996094 66.113281 176.992188 66.019531 L 176.953125 65.359375 C 176.953125 65.25 176.914062 65.160156 176.828125 65.089844 C 176.742188 65.019531 176.644531 64.992188 176.535156 65.019531 Z M 176.535156 65.019531 " fill-opacity="1" fill-rule="nonzero"/><path fill="#211b18" d="M 183.136719 70.082031 C 183.136719 71.058594 183.628906 71.855469 184.28125 71.878906 C 184.933594 71.898438 185.476562 71.113281 185.496094 70.132812 C 185.515625 69.15625 185.007812 68.359375 184.351562 68.34375 C 183.699219 68.332031 183.164062 69.109375 183.136719 70.082031 Z M 183.136719 70.082031 " fill-opacity="1" fill-rule="nonzero"/><path fill="#211b18" d="M 183.632812 64.601562 C 184.769531 64.71875 187.488281 64.785156 189.417969 67.382812 C 189.417969 67.382812 185.996094 65.976562 183.640625 65.96875 C 183.546875 65.96875 183.46875 65.941406 183.402344 65.875 C 183.335938 65.8125 183.300781 65.738281 183.296875 65.644531 L 183.257812 64.984375 C 183.242188 64.875 183.273438 64.777344 183.351562 64.699219 C 183.429688 64.621094 183.523438 64.585938 183.632812 64.601562 Z M 183.632812 64.601562 " fill-opacity="1" fill-rule="nonzero"/><path fill="#211b18" d="M 180.253906 71.230469 C 180.632812 71.804688 181.050781 72.351562 181.5 72.875 C 181.648438 73.039062 181.808594 73.183594 181.984375 73.316406 C 182.101562 73.390625 182.207031 73.480469 182.292969 73.585938 C 182.710938 74.285156 181.738281 75.046875 181.308594 75.5 C 181.222656 75.578125 181.15625 75.671875 181.113281 75.777344 C 181.113281 75.65625 181.152344 75.542969 181.222656 75.441406 C 181.5625 75 181.835938 74.523438 182.035156 74.003906 C 182.035156 73.796875 181.898438 73.710938 181.765625 73.621094 C 181.011719 72.980469 180.507812 72.183594 180.253906 71.230469 Z M 180.253906 71.230469 " fill-opacity="1" fill-rule="nonzero"/><path fill="#211b18" d="M 178.285156 77.113281 C 179.191406 77.25 181.71875 77.460938 183.71875 76.136719 C 183.789062 76.085938 183.859375 76.082031 183.933594 76.121094 C 184.007812 76.160156 184.046875 76.222656 184.042969 76.308594 C 184.042969 77.246094 183.746094 79.550781 181.105469 79.550781 C 180.773438 79.542969 180.449219 79.488281 180.132812 79.386719 C 179.816406 79.28125 179.523438 79.136719 179.25 78.945312 C 178.980469 78.75 178.742188 78.523438 178.539062 78.261719 C 178.335938 77.996094 178.175781 77.707031 178.0625 77.398438 C 178.035156 77.320312 178.042969 77.253906 178.09375 77.191406 C 178.144531 77.128906 178.207031 77.101562 178.285156 77.113281 Z M 178.285156 77.113281 " fill-opacity="1" fill-rule="nonzero"/><path fill="#ffffff" d="M 178.570312 77.152344 C 178.667969 77.503906 178.890625 77.738281 179.230469 77.867188 C 180.445312 78.253906 182.710938 77.621094 183.191406 77.488281 C 183.488281 77.402344 183.554688 76.703125 183.566406 76.234375 C 182.003906 77.089844 180.335938 77.394531 178.570312 77.152344 Z M 178.570312 77.152344 " fill-opacity="1" fill-rule="nonzero"/><path fill="#211b18" d="M 171.378906 107.285156 C 171.03125 107.179688 170.6875 107.066406 170.34375 106.949219 C 167.152344 105.863281 164.183594 104.347656 161.429688 102.40625 C 160.902344 102.027344 160.382812 101.640625 159.871094 101.238281 C 158.460938 100.140625 157.140625 98.945312 155.910156 97.644531 C 157.609375 95.316406 159.507812 93.511719 161.609375 92.699219 C 162.371094 92.390625 163.164062 92.222656 163.984375 92.207031 C 170.429688 92.058594 171.863281 99.289062 171.378906 107.285156 Z M 171.378906 107.285156 " fill-opacity="1" fill-rule="nonzero"/><path fill="#211b18" d="M 210.496094 94.878906 C 208.976562 96.859375 207.269531 98.65625 205.367188 100.273438 C 204.554688 100.972656 203.710938 101.632812 202.839844 102.253906 C 201.089844 103.5 199.246094 104.582031 197.308594 105.5 C 196.539062 105.863281 195.761719 106.195312 194.964844 106.503906 C 192.980469 97.789062 192.980469 88.988281 200.007812 88.289062 C 200.253906 88.265625 200.503906 88.25 200.753906 88.25 C 204.230469 88.308594 207.566406 91.070312 210.496094 94.878906 Z M 210.496094 94.878906 " fill-opacity="1" fill-rule="nonzero"/><path fill="#ffffff" d="M 209.289062 125.59375 L 200.886719 118.738281 C 200.675781 118.59375 200.441406 118.515625 200.1875 118.507812 C 199.933594 118.496094 199.695312 118.554688 199.472656 118.683594 C 199.253906 118.808594 199.082031 118.988281 198.964844 119.214844 C 198.847656 119.4375 198.796875 119.679688 198.820312 119.933594 L 198.820312 122.632812 L 191.554688 122.632812 C 191.277344 122.632812 191.007812 122.6875 190.75 122.792969 C 190.492188 122.898438 190.265625 123.050781 190.066406 123.246094 C 189.871094 123.445312 189.71875 123.671875 189.609375 123.929688 C 189.503906 124.1875 189.449219 124.453125 189.449219 124.734375 L 189.449219 128.980469 C 189.449219 129.257812 189.503906 129.527344 189.609375 129.785156 C 189.71875 130.042969 189.871094 130.269531 190.066406 130.46875 C 190.265625 130.664062 190.492188 130.816406 190.75 130.925781 C 191.007812 131.03125 191.277344 131.085938 191.554688 131.085938 L 198.820312 131.085938 L 198.820312 133.785156 C 198.796875 134.042969 198.847656 134.28125 198.964844 134.511719 C 199.085938 134.738281 199.257812 134.914062 199.480469 135.042969 C 199.703125 135.171875 199.941406 135.226562 200.199219 135.214844 C 200.457031 135.203125 200.6875 135.121094 200.898438 134.972656 L 209.296875 127.976562 C 209.480469 127.832031 209.625 127.65625 209.726562 127.445312 C 209.828125 127.238281 209.878906 127.015625 209.878906 126.78125 C 209.878906 126.546875 209.824219 126.328125 209.722656 126.117188 C 209.617188 125.910156 209.472656 125.734375 209.289062 125.59375 Z M 209.289062 125.59375 " fill-opacity="1" fill-rule="nonzero"/><path fill="#ffffff" d="M 154.222656 125.59375 L 162.621094 118.738281 C 162.828125 118.59375 163.0625 118.511719 163.320312 118.5 C 163.574219 118.488281 163.8125 118.546875 164.035156 118.675781 C 164.257812 118.804688 164.429688 118.980469 164.546875 119.210938 C 164.664062 119.4375 164.714844 119.679688 164.691406 119.933594 L 164.691406 122.632812 L 171.953125 122.632812 C 172.234375 122.632812 172.5 122.6875 172.757812 122.792969 C 173.015625 122.902344 173.242188 123.050781 173.4375 123.25 C 173.636719 123.445312 173.789062 123.671875 173.894531 123.929688 C 174 124.1875 174.054688 124.457031 174.054688 124.734375 L 174.054688 128.980469 C 174.054688 129.257812 174.003906 129.527344 173.894531 129.785156 C 173.789062 130.042969 173.636719 130.269531 173.441406 130.46875 C 173.246094 130.664062 173.015625 130.816406 172.757812 130.925781 C 172.5 131.03125 172.234375 131.085938 171.953125 131.085938 L 164.691406 131.085938 L 164.691406 133.785156 C 164.714844 134.042969 164.664062 134.28125 164.546875 134.511719 C 164.425781 134.738281 164.253906 134.914062 164.03125 135.042969 C 163.808594 135.171875 163.570312 135.226562 163.3125 135.214844 C 163.054688 135.203125 162.820312 135.121094 162.613281 134.972656 L 154.207031 127.976562 C 154.023438 127.832031 153.882812 127.65625 153.78125 127.445312 C 153.679688 127.234375 153.628906 127.011719 153.628906 126.78125 C 153.628906 126.546875 153.683594 126.324219 153.785156 126.117188 C 153.890625 125.910156 154.035156 125.734375 154.222656 125.59375 Z M 154.222656 125.59375 " fill-opacity="1" fill-rule="nonzero"/><path fill="#211b18" d="M 155.621094 2.535156 L 202.925781 2.535156 L 202.925781 16.050781 L 155.621094 16.050781 Z M 155.621094 2.535156 " fill-opacity="1" fill-rule="nonzero"/><path fill="#ffd3b6" d="M 65.726562 198.527344 C 65.726562 198.527344 68.511719 187.683594 72.757812 157.492188 C 78.039062 119.972656 119.070312 60.179688 126.691406 63.082031 C 134.308594 65.988281 133.789062 79.273438 126.691406 92.398438 C 121.136719 102.667969 120.246094 119.945312 119.660156 126.976562 C 119.070312 134.007812 123.757812 163.910156 110.863281 175.046875 " fill-opacity="1" fill-rule="nonzero"/><path fill="#211b18" d="M 115.144531 80.957031 C 113.84375 80.464844 112.601562 79.859375 111.414062 79.140625 C 110.351562 78.480469 110.441406 76.359375 111.632812 74.347656 C 114.148438 70.167969 116.945312 66.191406 120.027344 62.410156 C 127.78125 52.730469 128.847656 60.144531 125.382812 67.300781 C 123.554688 71.101562 121.53125 74.792969 119.308594 78.375 C 118.109375 80.292969 116.292969 81.410156 115.144531 80.957031 Z M 115.144531 80.957031 " fill-opacity="1" fill-rule="nonzero"/><path fill="#ffd3b6" d="M 297.625 374.953125 C 296.964844 374.988281 296.328125 374.875 295.71875 374.605469 C 295.113281 374.339844 294.597656 373.953125 294.171875 373.441406 C 288.621094 366.785156 277.496094 348.128906 260.621094 335.460938 C 241.171875 320.863281 212.683594 300.351562 199.03125 283.230469 C 185.375 266.113281 164.386719 248.898438 162.097656 242.09375 C 157.535156 228.460938 175.203125 230.632812 189.753906 237.386719 C 209.625 246.628906 220.050781 265.683594 222.296875 264.578125 C 224.539062 263.476562 216.625 231.265625 214.886719 226.375 C 213.152344 221.480469 198.777344 159.375 197.777344 148.96875 C 195.886719 129.429688 206.734375 127.039062 208.398438 130.28125 C 226.882812 166.3125 237.125 220.148438 244.710938 224.148438 C 247.679688 225.714844 236.488281 199.296875 238.074219 190.808594 C 239.660156 182.316406 248.421875 175.742188 255.902344 178.964844 C 256.953125 179.394531 257.921875 179.96875 258.808594 180.683594 C 259.695312 181.398438 260.460938 182.226562 261.105469 183.164062 C 261.75 184.101562 262.246094 185.113281 262.597656 186.195312 C 262.949219 187.277344 263.136719 188.390625 263.164062 189.527344 C 263.164062 189.527344 267.671875 180.285156 278.84375 182.675781 C 285.617188 184.113281 289.53125 203.851562 289.53125 203.851562 C 289.53125 203.851562 295.976562 192.003906 306.109375 200.402344 C 307.191406 201.296875 309.609375 206 310.242188 207.253906 C 315.253906 217.234375 314.5 224.53125 317.710938 242.480469 C 319.214844 250.917969 320.488281 272.628906 319.777344 288.75 C 319.699219 290.460938 319.785156 292.164062 320.035156 293.859375 C 320.285156 295.554688 320.699219 297.207031 321.269531 298.824219 C 321.839844 300.4375 322.558594 301.984375 323.429688 303.460938 C 324.300781 304.9375 325.300781 306.316406 326.4375 307.597656 C 336.375 318.78125 344.300781 325.332031 351.320312 331.988281 C 351.664062 332.3125 351.945312 332.683594 352.160156 333.105469 C 352.378906 333.523438 352.519531 333.96875 352.589844 334.4375 C 352.65625 334.902344 352.644531 335.371094 352.554688 335.832031 C 352.464844 336.296875 352.304688 336.734375 352.066406 337.144531 C 346.777344 346.3125 321.824219 373.414062 297.625 374.953125 Z M 297.625 374.953125 " fill-opacity="1" fill-rule="nonzero"/><path fill="#211b18" d="M 210.570312 143.46875 C 208.960938 143.980469 206.894531 144.574219 205.15625 144.921875 C 204.75 145.003906 204.34375 145.007812 203.9375 144.933594 C 203.53125 144.859375 203.152344 144.710938 202.800781 144.492188 C 202.449219 144.273438 202.152344 144 201.90625 143.664062 C 201.660156 143.332031 201.484375 142.964844 201.378906 142.566406 C 200.519531 139.050781 200.125 135.488281 200.199219 131.871094 C 200.199219 122.628906 207.289062 122.257812 209.878906 130.847656 C 211.046875 134.730469 212.328125 137.648438 212.769531 139.714844 C 212.851562 140.109375 212.863281 140.503906 212.800781 140.902344 C 212.734375 141.296875 212.601562 141.671875 212.398438 142.019531 C 212.195312 142.367188 211.933594 142.664062 211.621094 142.914062 C 211.304688 143.164062 210.953125 143.351562 210.570312 143.46875 Z M 210.570312 143.46875 " fill-opacity="1" fill-rule="nonzero"/><path fill="#211b18" d="M 181.375 244.699219 C 180.226562 246.914062 178.703125 249.707031 177.261719 251.878906 C 177.097656 252.128906 176.90625 252.363281 176.695312 252.578125 C 176.484375 252.796875 176.253906 252.992188 176.007812 253.164062 C 175.757812 253.335938 175.496094 253.484375 175.222656 253.609375 C 174.945312 253.730469 174.660156 253.828125 174.367188 253.898438 C 174.070312 253.96875 173.773438 254.007812 173.472656 254.023438 C 173.171875 254.035156 172.871094 254.019531 172.570312 253.976562 C 172.273438 253.933594 171.980469 253.863281 171.695312 253.761719 C 171.40625 253.664062 171.132812 253.539062 170.871094 253.390625 C 168.046875 251.765625 163.726562 248.769531 158.441406 243.484375 C 148.769531 233.847656 159.277344 229.082031 167.425781 232.261719 C 171.726562 233.925781 175.828125 235.988281 179.726562 238.449219 C 180.230469 238.769531 180.660156 239.175781 181.011719 239.65625 C 181.363281 240.140625 181.617188 240.671875 181.769531 241.253906 C 181.921875 241.832031 181.964844 242.417969 181.898438 243.015625 C 181.828125 243.609375 181.65625 244.171875 181.375 244.699219 Z M 181.375 244.699219 " fill-opacity="1" fill-rule="nonzero"/><path fill="#211b18" d="M 274.617188 245.914062 C 274.457031 245.917969 274.3125 245.867188 274.1875 245.765625 C 274.0625 245.664062 273.984375 245.53125 273.957031 245.375 L 262.699219 189.726562 C 262.664062 189.542969 262.695312 189.375 262.796875 189.21875 C 262.902344 189.0625 263.042969 188.964844 263.226562 188.929688 C 263.40625 188.890625 263.578125 188.925781 263.730469 189.027344 C 263.886719 189.128906 263.984375 189.273438 264.019531 189.453125 L 275.277344 245.101562 C 275.320312 245.289062 275.289062 245.457031 275.183594 245.617188 C 275.082031 245.773438 274.9375 245.871094 274.75 245.902344 Z M 274.617188 245.914062 " fill-opacity="1" fill-rule="nonzero"/><path fill="#211b18" d="M 297.414062 241.953125 C 297.253906 241.957031 297.113281 241.90625 296.988281 241.808594 C 296.863281 241.707031 296.785156 241.578125 296.753906 241.417969 L 289.03125 203.683594 C 288.992188 203.5 289.023438 203.332031 289.128906 203.175781 C 289.230469 203.019531 289.371094 202.921875 289.554688 202.886719 C 289.738281 202.847656 289.90625 202.882812 290.0625 202.984375 C 290.214844 203.085938 290.3125 203.230469 290.351562 203.410156 L 298.082031 241.140625 C 298.125 241.328125 298.09375 241.496094 297.988281 241.65625 C 297.882812 241.8125 297.738281 241.90625 297.554688 241.941406 C 297.507812 241.953125 297.460938 241.957031 297.414062 241.953125 Z M 297.414062 241.953125 " fill-opacity="1" fill-rule="nonzero"/><path fill="#211b18" d="M 252 249.125 C 251.84375 249.128906 251.703125 249.082031 251.578125 248.988281 C 251.457031 248.894531 251.375 248.773438 251.339844 248.621094 L 244.734375 224.074219 C 244.6875 223.894531 244.710938 223.71875 244.808594 223.558594 C 244.902344 223.394531 245.042969 223.289062 245.222656 223.242188 C 245.40625 223.195312 245.578125 223.21875 245.742188 223.316406 C 245.90625 223.410156 246.007812 223.550781 246.058594 223.730469 L 252.660156 248.273438 C 252.710938 248.453125 252.691406 248.625 252.59375 248.789062 C 252.5 248.949219 252.359375 249.054688 252.175781 249.097656 C 252.117188 249.113281 252.058594 249.121094 252 249.125 Z M 252 249.125 " fill-opacity="1" fill-rule="nonzero"/><path fill="#d17f47" d="M 187.546875 184.761719 C 187.546875 185.558594 187.472656 186.347656 187.316406 187.128906 C 187.160156 187.910156 186.929688 188.667969 186.625 189.402344 C 186.320312 190.140625 185.945312 190.839844 185.503906 191.5 C 185.0625 192.164062 184.558594 192.777344 183.996094 193.339844 C 183.429688 193.902344 182.816406 194.40625 182.15625 194.851562 C 181.492188 195.292969 180.792969 195.667969 180.058594 195.972656 C 179.320312 196.277344 178.5625 196.507812 177.78125 196.660156 C 177 196.816406 176.210938 196.894531 175.414062 196.894531 C 174.617188 196.894531 173.828125 196.816406 173.046875 196.660156 C 172.265625 196.507812 171.507812 196.277344 170.769531 195.972656 C 170.035156 195.667969 169.335938 195.292969 168.671875 194.851562 C 168.011719 194.40625 167.398438 193.902344 166.832031 193.339844 C 166.269531 192.777344 165.765625 192.164062 165.324219 191.5 C 164.882812 190.839844 164.507812 190.140625 164.203125 189.402344 C 163.898438 188.667969 163.667969 187.910156 163.511719 187.128906 C 163.355469 186.347656 163.28125 185.558594 163.28125 184.761719 C 163.28125 183.964844 163.355469 183.175781 163.511719 182.394531 C 163.667969 181.609375 163.898438 180.851562 164.203125 180.117188 C 164.507812 179.378906 164.882812 178.679688 165.324219 178.019531 C 165.765625 177.355469 166.269531 176.742188 166.832031 176.179688 C 167.398438 175.617188 168.011719 175.113281 168.671875 174.671875 C 169.335938 174.226562 170.035156 173.855469 170.769531 173.550781 C 171.507812 173.246094 172.265625 173.015625 173.046875 172.859375 C 173.828125 172.703125 174.617188 172.625 175.414062 172.625 C 176.210938 172.625 177 172.703125 177.78125 172.859375 C 178.5625 173.015625 179.320312 173.246094 180.058594 173.550781 C 180.792969 173.855469 181.492188 174.226562 182.15625 174.671875 C 182.816406 175.113281 183.429688 175.617188 183.996094 176.179688 C 184.558594 176.742188 185.0625 177.355469 185.503906 178.019531 C 185.945312 178.679688 186.320312 179.378906 186.625 180.117188 C 186.929688 180.851562 187.160156 181.609375 187.316406 182.394531 C 187.472656 183.175781 187.546875 183.964844 187.546875 184.761719 Z M 187.546875 184.761719 " fill-opacity="1" fill-rule="nonzero"/><path fill="#ffffff" d="M 181.863281 183.15625 C 181.863281 183.070312 181.863281 182.992188 181.863281 182.90625 C 181.820312 182.515625 181.710938 182.140625 181.539062 181.789062 C 181.367188 181.433594 181.140625 181.117188 180.859375 180.84375 C 180.582031 180.566406 180.261719 180.34375 179.90625 180.175781 C 179.550781 180.007812 179.175781 179.90625 178.785156 179.867188 C 178.390625 179.828125 178.003906 179.855469 177.625 179.953125 C 177.242188 180.046875 176.886719 180.199219 176.554688 180.417969 C 176.226562 180.632812 175.945312 180.898438 175.707031 181.210938 C 175.46875 181.527344 175.289062 181.871094 175.167969 182.246094 C 175 181.882812 174.773438 181.5625 174.492188 181.277344 C 174.210938 180.996094 173.890625 180.769531 173.53125 180.597656 C 173.171875 180.425781 172.792969 180.320312 172.394531 180.28125 C 171.996094 180.242188 171.605469 180.269531 171.21875 180.367188 C 170.832031 180.464844 170.472656 180.625 170.140625 180.847656 C 169.808594 181.070312 169.523438 181.339844 169.289062 181.664062 C 169.050781 181.984375 168.875 182.335938 168.761719 182.71875 C 168.644531 183.101562 168.597656 183.488281 168.621094 183.886719 C 168.621094 183.886719 168.078125 186.640625 174.132812 190.636719 C 174.558594 190.917969 175.027344 191.050781 175.539062 191.03125 C 176.046875 191.015625 176.507812 190.851562 176.914062 190.542969 C 178.703125 189.175781 181.632812 186.523438 181.871094 183.636719 C 181.878906 183.476562 181.875 183.316406 181.863281 183.15625 Z M 181.863281 183.15625 " fill-opacity="1" fill-rule="nonzero"/></svg>